<svg width="143" height="30" viewBox="0 0 143 30" fill="none" xmlns="http://www.w3.org/2000/svg">
<rect width="143" height="30" rx="15" fill="#CAD2C5"/>
<path d="M13.792 16.304C13.792 14.96 14.056 13.768 14.584 12.728C15.128 11.688 15.856 10.888 16.768 10.328C17.696 9.768 18.728 9.488 19.864 9.488C20.856 9.488 21.72 9.688 22.456 10.088C23.208 10.488 23.808 10.992 24.256 11.6V9.704H27.64V23H24.256V21.056C23.824 21.68 23.224 22.2 22.456 22.616C21.704 23.016 20.832 23.216 19.84 23.216C18.72 23.216 17.696 22.928 16.768 22.352C15.856 21.776 15.128 20.968 14.584 19.928C14.056 18.872 13.792 17.664 13.792 16.304ZM24.256 16.352C24.256 15.536 24.096 14.84 23.776 14.264C23.456 13.672 23.024 13.224 22.48 12.92C21.936 12.6 21.352 12.44 20.728 12.44C20.104 12.44 19.528 12.592 19 12.896C18.472 13.2 18.04 13.648 17.704 14.24C17.384 14.816 17.224 15.504 17.224 16.304C17.224 17.104 17.384 17.808 17.704 18.416C18.04 19.008 18.472 19.464 19 19.784C19.544 20.104 20.12 20.264 20.728 20.264C21.352 20.264 21.936 20.112 22.48 19.808C23.024 19.488 23.456 19.04 23.776 18.464C24.096 17.872 24.256 17.168 24.256 16.352ZM32.2176 16.352C32.2176 14.976 32.4976 13.776 33.0576 12.752C33.6176 11.712 34.3936 10.912 35.3856 10.352C36.3776 9.776 37.5136 9.488 38.7936 9.488C40.4416 9.488 41.8016 9.904 42.8736 10.736C43.9616 11.552 44.6896 12.704 45.0576 14.192H41.4336C41.2416 13.616 40.9136 13.168 40.4496 12.848C40.0016 12.512 39.4416 12.344 38.7696 12.344C37.8096 12.344 37.0496 12.696 36.4896 13.4C35.9296 14.088 35.6496 15.072 35.6496 16.352C35.6496 17.616 35.9296 18.6 36.4896 19.304C37.0496 19.992 37.8096 20.336 38.7696 20.336C40.1296 20.336 41.0176 19.728 41.4336 18.512H45.0576C44.6896 19.952 43.9616 21.096 42.8736 21.944C41.7856 22.792 40.4256 23.216 38.7936 23.216C37.5136 23.216 36.3776 22.936 35.3856 22.376C34.3936 21.8 33.6176 21 33.0576 19.976C32.4976 18.936 32.2176 17.728 32.2176 16.352ZM48.8151 16.352C48.8151 14.976 49.0951 13.776 49.6551 12.752C50.2151 11.712 50.9911 10.912 51.9831 10.352C52.9751 9.776 54.1111 9.488 55.3911 9.488C57.0391 9.488 58.3991 9.904 59.4711 10.736C60.5591 11.552 61.2871 12.704 61.6551 14.192H58.0311C57.8391 13.616 57.5111 13.168 57.0471 12.848C56.5991 12.512 56.0391 12.344 55.3671 12.344C54.4071 12.344 53.6471 12.696 53.0871 13.4C52.5271 14.088 52.2471 15.072 52.2471 16.352C52.2471 17.616 52.5271 18.6 53.0871 19.304C53.6471 19.992 54.4071 20.336 55.3671 20.336C56.7271 20.336 57.6151 19.728 58.0311 18.512H61.6551C61.2871 19.952 60.5591 21.096 59.4711 21.944C58.3831 22.792 57.0231 23.216 55.3911 23.216C54.1111 23.216 52.9751 22.936 51.9831 22.376C50.9911 21.8 50.2151 21 49.6551 19.976C49.0951 18.936 48.8151 17.728 48.8151 16.352ZM72.1806 23.216C70.9006 23.216 69.7486 22.936 68.7246 22.376C67.7006 21.8 66.8926 20.992 66.3006 19.952C65.7246 18.912 65.4366 17.712 65.4366 16.352C65.4366 14.992 65.7326 13.792 66.3246 12.752C66.9326 11.712 67.7566 10.912 68.7966 10.352C69.8366 9.776 70.9966 9.488 72.2766 9.488C73.5566 9.488 74.7166 9.776 75.7566 10.352C76.7966 10.912 77.6126 11.712 78.2046 12.752C78.8126 13.792 79.1166 14.992 79.1166 16.352C79.1166 17.712 78.8046 18.912 78.1806 19.952C77.5726 20.992 76.7406 21.8 75.6846 22.376C74.6446 22.936 73.4766 23.216 72.1806 23.216ZM72.1806 20.288C72.7886 20.288 73.3566 20.144 73.8846 19.856C74.4286 19.552 74.8606 19.104 75.1806 18.512C75.5006 17.92 75.6606 17.2 75.6606 16.352C75.6606 15.088 75.3246 14.12 74.6526 13.448C73.9966 12.76 73.1886 12.416 72.2286 12.416C71.2686 12.416 70.4606 12.76 69.8046 13.448C69.1646 14.12 68.8446 15.088 68.8446 16.352C68.8446 17.616 69.1566 18.592 69.7806 19.28C70.4206 19.952 71.2206 20.288 72.1806 20.288ZM96.2933 9.704V23H92.9093V21.32C92.4773 21.896 91.9093 22.352 91.2053 22.688C90.5173 23.008 89.7653 23.168 88.9493 23.168C87.9093 23.168 86.9893 22.952 86.1893 22.52C85.3893 22.072 84.7573 21.424 84.2933 20.576C83.8453 19.712 83.6213 18.688 83.6213 17.504V9.704H86.9813V17.024C86.9813 18.08 87.2453 18.896 87.7733 19.472C88.3013 20.032 89.0213 20.312 89.9333 20.312C90.8613 20.312 91.5893 20.032 92.1173 19.472C92.6453 18.896 92.9093 18.08 92.9093 17.024V9.704H96.2933ZM109.137 9.512C110.721 9.512 112.001 10.016 112.977 11.024C113.953 12.016 114.441 13.408 114.441 15.2V23H111.081V15.656C111.081 14.6 110.817 13.792 110.289 13.232C109.761 12.656 109.041 12.368 108.129 12.368C107.201 12.368 106.465 12.656 105.921 13.232C105.393 13.792 105.129 14.6 105.129 15.656V23H101.769V9.704H105.129V11.36C105.577 10.784 106.145 10.336 106.833 10.016C107.537 9.68 108.305 9.512 109.137 9.512ZM123.708 12.464V18.896C123.708 19.344 123.812 19.672 124.02 19.88C124.244 20.072 124.612 20.168 125.124 20.168H126.684V23H124.572C121.74 23 120.324 21.624 120.324 18.872V12.464H118.74V9.704H120.324V6.416H123.708V9.704H126.684V12.464H123.708Z" fill="#2F3E46"/>
</svg>
