<svg width="167" height="66" viewBox="0 0 167 66" fill="none" xmlns="http://www.w3.org/2000/svg">
<g filter="url(#filter0_f)">
<path d="M24.98 10.432C24.404 9.376 23.612 8.572 22.604 8.02C21.596 7.468 20.42 7.192 19.076 7.192C17.588 7.192 16.268 7.528 15.116 8.2C13.964 8.872 13.064 9.832 12.416 11.08C11.768 12.328 11.444 13.768 11.444 15.4C11.444 17.08 11.768 18.544 12.416 19.792C13.088 21.04 14.012 22 15.188 22.672C16.364 23.344 17.732 23.68 19.292 23.68C21.212 23.68 22.784 23.176 24.008 22.168C25.232 21.136 26.036 19.708 26.42 17.884H17.78V14.032H31.388V18.424C31.052 20.176 30.332 21.796 29.228 23.284C28.124 24.772 26.696 25.972 24.944 26.884C23.216 27.772 21.272 28.216 19.112 28.216C16.688 28.216 14.492 27.676 12.524 26.596C10.58 25.492 9.044 23.968 7.916 22.024C6.812 20.08 6.26 17.872 6.26 15.4C6.26 12.928 6.812 10.72 7.916 8.776C9.044 6.808 10.58 5.284 12.524 4.204C14.492 3.1 16.676 2.548 19.076 2.548C21.908 2.548 24.368 3.244 26.456 4.636C28.544 6.004 29.984 7.936 30.776 10.432H24.98ZM47.8008 24.808H41.1288L40.0248 28H36.4968L42.5208 11.224H46.4328L52.4568 28H48.9048L47.8008 24.808ZM46.8888 22.12L44.4648 15.112L42.0408 22.12H46.8888ZM62.1485 28L58.4525 21.472H56.8685V28H53.5085V11.248H59.7965C61.0925 11.248 62.1965 11.48 63.1085 11.944C64.0205 12.392 64.7005 13.008 65.1485 13.792C65.6125 14.56 65.8445 15.424 65.8445 16.384C65.8445 17.488 65.5245 18.488 64.8845 19.384C64.2445 20.264 63.2925 20.872 62.0285 21.208L66.0365 28H62.1485ZM56.8685 18.952H59.6765C60.5885 18.952 61.2685 18.736 61.7165 18.304C62.1645 17.856 62.3885 17.24 62.3885 16.456C62.3885 15.688 62.1645 15.096 61.7165 14.68C61.2685 14.248 60.5885 14.032 59.6765 14.032H56.8685V18.952ZM77.9555 24.808H71.2835L70.1795 28H66.6515L72.6755 11.224H76.5875L82.6115 28H79.0595L77.9555 24.808ZM77.0435 22.12L74.6195 15.112L72.1955 22.12H77.0435ZM95.3272 16.288C94.9432 15.584 94.4152 15.048 93.7432 14.68C93.0712 14.312 92.2872 14.128 91.3912 14.128C90.3992 14.128 89.5192 14.352 88.7512 14.8C87.9832 15.248 87.3832 15.888 86.9512 16.72C86.5192 17.552 86.3032 18.512 86.3032 19.6C86.3032 20.72 86.5192 21.696 86.9512 22.528C87.3992 23.36 88.0152 24 88.7992 24.448C89.5832 24.896 90.4952 25.12 91.5352 25.12C92.8152 25.12 93.8632 24.784 94.6792 24.112C95.4952 23.424 96.0312 22.472 96.2872 21.256H90.5272V18.688H99.5992V21.616C99.3752 22.784 98.8952 23.864 98.1592 24.856C97.4232 25.848 96.4712 26.648 95.3032 27.256C94.1512 27.848 92.8552 28.144 91.4152 28.144C89.7992 28.144 88.3352 27.784 87.0232 27.064C85.7272 26.328 84.7032 25.312 83.9512 24.016C83.2152 22.72 82.8472 21.248 82.8472 19.6C82.8472 17.952 83.2152 16.48 83.9512 15.184C84.7032 13.872 85.7272 12.856 87.0232 12.136C88.3352 11.4 89.7912 11.032 91.3912 11.032C93.2792 11.032 94.9192 11.496 96.3112 12.424C97.7032 13.336 98.6632 14.624 99.1912 16.288H95.3272ZM104.245 13.96V18.16H109.885V20.824H104.245V25.264H110.605V28H100.885V11.224H110.605V13.96H104.245Z" fill="#CAD2C5"/>
<path d="M24.98 10.432L24.1021 10.9109L24.3864 11.432H24.98V10.432ZM12.416 11.08L11.5285 10.6192L12.416 11.08ZM12.416 19.792L11.5285 20.2528L11.532 20.2595L11.5355 20.2661L12.416 19.792ZM15.188 22.672L14.6919 23.5402L15.188 22.672ZM24.008 22.168L24.6437 22.94L24.6526 22.9325L24.008 22.168ZM26.42 17.884L27.3986 18.09L27.6524 16.884H26.42V17.884ZM17.78 17.884H16.78V18.884H17.78V17.884ZM17.78 14.032V13.032H16.78V14.032H17.78ZM31.388 14.032H32.388V13.032H31.388V14.032ZM31.388 18.424L32.3701 18.6123L32.388 18.519V18.424H31.388ZM29.228 23.284L28.4249 22.6882L29.228 23.284ZM24.944 26.884L25.4011 27.7734L25.4057 27.771L24.944 26.884ZM12.524 26.596L12.0302 27.4656L12.0365 27.4692L12.0429 27.4727L12.524 26.596ZM7.916 22.024L7.0464 22.5178L7.05106 22.5259L7.916 22.024ZM7.916 8.776L7.0484 8.27872L7.04644 8.28217L7.916 8.776ZM12.524 4.204L13.0096 5.07816L13.0133 5.07614L12.524 4.204ZM26.456 4.636L25.9013 5.46808L25.908 5.47246L26.456 4.636ZM30.776 10.432V11.432H32.1424L31.7292 10.1296L30.776 10.432ZM25.8579 9.95315C25.1947 8.73733 24.2683 7.79127 23.0843 7.1429L22.1237 8.8971C22.9557 9.35273 23.6133 10.0147 24.1021 10.9109L25.8579 9.95315ZM23.0843 7.1429C21.9059 6.49757 20.5593 6.192 19.076 6.192V8.192C20.2807 8.192 21.2861 8.43843 22.1237 8.8971L23.0843 7.1429ZM19.076 6.192C17.4319 6.192 15.9342 6.565 14.6121 7.33622L15.6199 9.06378C16.6018 8.491 17.7441 8.192 19.076 8.192V6.192ZM14.6121 7.33622C13.2876 8.10884 12.2587 9.21285 11.5285 10.6192L13.3035 11.5408C13.8693 10.4512 14.6404 9.63516 15.6199 9.06378L14.6121 7.33622ZM11.5285 10.6192C10.7955 12.0308 10.444 13.6334 10.444 15.4H12.444C12.444 13.9026 12.7405 12.6252 13.3035 11.5408L11.5285 10.6192ZM10.444 15.4C10.444 17.2094 10.7935 18.8372 11.5285 20.2528L13.3035 19.3312C12.7425 18.2507 12.444 16.9506 12.444 15.4H10.444ZM11.5355 20.2661C12.2919 21.6708 13.3457 22.771 14.6919 23.5402L15.6841 21.8038C14.6783 21.229 13.8841 20.4092 13.2965 19.3179L11.5355 20.2661ZM14.6919 23.5402C16.0406 24.3109 17.5847 24.68 19.292 24.68V22.68C17.8793 22.68 16.6874 22.3771 15.6841 21.8038L14.6919 23.5402ZM19.292 24.68C21.3932 24.68 23.2051 24.1247 24.6437 22.9399L23.3723 21.3961C22.3629 22.2273 21.0308 22.68 19.292 22.68V24.68ZM24.6526 22.9325C26.0741 21.734 26.9765 20.0948 27.3986 18.09L25.4415 17.678C25.0955 19.3212 24.3899 20.538 23.3634 21.4035L24.6526 22.9325ZM26.42 16.884H17.78V18.884H26.42V16.884ZM18.78 17.884V14.032H16.78V17.884H18.78ZM17.78 15.032H31.388V13.032H17.78V15.032ZM30.388 14.032V18.424H32.388V14.032H30.388ZM30.4059 18.2357C30.0993 19.8343 29.4429 21.316 28.4249 22.6882L30.0311 23.8798C31.2211 22.276 32.0047 20.5177 32.3701 18.6123L30.4059 18.2357ZM28.4249 22.6882C27.4171 24.0465 26.109 25.1502 24.4823 25.997L25.4057 27.771C27.283 26.7938 28.8309 25.4975 30.0311 23.8798L28.4249 22.6882ZM24.4869 25.9946C22.9155 26.8021 21.1311 27.216 19.112 27.216V29.216C21.413 29.216 23.5165 28.7419 25.4011 27.7734L24.4869 25.9946ZM19.112 27.216C16.8424 27.216 14.814 26.712 13.0051 25.7193L12.0429 27.4727C14.17 28.64 16.5336 29.216 19.112 29.216V27.216ZM13.0178 25.7264C11.2288 24.7104 9.8205 23.3137 8.78094 21.5221L7.05106 22.5259C8.2675 24.6223 9.93121 26.2736 12.0302 27.4656L13.0178 25.7264ZM8.78556 21.5302C7.77586 19.7522 7.26 17.7176 7.26 15.4H5.26C5.26 18.0264 5.84814 20.4078 7.04644 22.5178L8.78556 21.5302ZM7.26 15.4C7.26 13.0824 7.77586 11.0478 8.78556 9.26982L7.04644 8.28217C5.84814 10.3922 5.26 12.7736 5.26 15.4H7.26ZM8.78359 9.27328C9.82289 7.46002 11.2282 6.06783 13.0096 5.07816L12.0384 3.32984C9.93176 4.50017 8.26511 6.15597 7.04841 8.27872L8.78359 9.27328ZM13.0133 5.07614C14.8223 4.06132 16.8361 3.548 19.076 3.548V1.548C16.5159 1.548 14.1617 2.13868 12.0347 3.33186L13.0133 5.07614ZM19.076 3.548C21.7368 3.548 23.9981 4.19926 25.9013 5.46805L27.0107 3.80395C24.7379 2.28874 22.0792 1.548 19.076 1.548V3.548ZM25.908 5.47246C27.7936 6.70784 29.0967 8.44614 29.8228 10.7344L31.7292 10.1296C30.8713 7.42586 29.2944 5.30016 27.004 3.79954L25.908 5.47246ZM30.776 9.432H24.98V11.432H30.776V9.432ZM47.8008 24.808L48.7459 24.4811L48.5131 23.808H47.8008V24.808ZM41.1288 24.808V23.808H40.4166L40.1837 24.4811L41.1288 24.808ZM40.0248 28V29H40.7371L40.9699 28.3269L40.0248 28ZM36.4968 28L35.5557 27.662L35.0752 29H36.4968V28ZM42.5208 11.224V10.224H41.8174L41.5797 10.886L42.5208 11.224ZM46.4328 11.224L47.374 10.886L47.1362 10.224H46.4328V11.224ZM52.4568 28V29H53.8784L53.398 27.662L52.4568 28ZM48.9048 28L47.9597 28.3269L48.1926 29H48.9048V28ZM46.8888 22.12V23.12H48.2928L47.8339 21.7931L46.8888 22.12ZM44.4648 15.112L45.4099 14.7851L44.4648 12.0529L43.5197 14.7851L44.4648 15.112ZM42.0408 22.12L41.0957 21.7931L40.6368 23.12H42.0408V22.12ZM47.8008 23.808H41.1288V25.808H47.8008V23.808ZM40.1837 24.4811L39.0797 27.6731L40.9699 28.3269L42.0739 25.1349L40.1837 24.4811ZM40.0248 27H36.4968V29H40.0248V27ZM37.438 28.338L43.462 11.562L41.5797 10.886L35.5557 27.662L37.438 28.338ZM42.5208 12.224H46.4328V10.224H42.5208V12.224ZM45.4916 11.562L51.5157 28.338L53.398 27.662L47.374 10.886L45.4916 11.562ZM52.4568 27H48.9048V29H52.4568V27ZM49.8499 27.6731L48.7459 24.4811L46.8557 25.1349L47.9597 28.3269L49.8499 27.6731ZM47.8339 21.7931L45.4099 14.7851L43.5197 15.4389L45.9437 22.4469L47.8339 21.7931ZM43.5197 14.7851L41.0957 21.7931L42.9859 22.4469L45.4099 15.4389L43.5197 14.7851ZM42.0408 23.12H46.8888V21.12H42.0408V23.12ZM62.1485 28L61.2783 28.4927L61.5655 29H62.1485V28ZM58.4525 21.472L59.3227 20.9793L59.0355 20.472H58.4525V21.472ZM56.8685 21.472V20.472H55.8685V21.472H56.8685ZM56.8685 28V29H57.8685V28H56.8685ZM53.5085 28H52.5085V29H53.5085V28ZM53.5085 11.248V10.248H52.5085V11.248H53.5085ZM63.1085 11.944L62.655 12.8354L62.6676 12.8416L63.1085 11.944ZM65.1485 13.792L64.2803 14.2881L64.2863 14.2987L64.2926 14.3091L65.1485 13.792ZM64.8845 19.384L65.6933 19.9722L65.6982 19.9652L64.8845 19.384ZM62.0285 21.208L61.7716 20.2416L60.497 20.5804L61.1673 21.7162L62.0285 21.208ZM66.0365 28V29H67.7877L66.8977 27.4918L66.0365 28ZM56.8685 18.952H55.8685V19.952H56.8685V18.952ZM61.7165 18.304L62.4106 19.0238L62.4172 19.0175L62.4236 19.0111L61.7165 18.304ZM61.7165 14.68L61.0224 15.3998L61.0291 15.4064L61.036 15.4128L61.7165 14.68ZM56.8685 14.032V13.032H55.8685V14.032H56.8685ZM63.0187 27.5073L59.3227 20.9793L57.5823 21.9647L61.2783 28.4927L63.0187 27.5073ZM58.4525 20.472H56.8685V22.472H58.4525V20.472ZM55.8685 21.472V28H57.8685V21.472H55.8685ZM56.8685 27H53.5085V29H56.8685V27ZM54.5085 28V11.248H52.5085V28H54.5085ZM53.5085 12.248H59.7965V10.248H53.5085V12.248ZM59.7965 12.248C60.9758 12.248 61.9159 12.4592 62.655 12.8353L63.562 11.0527C62.4771 10.5008 61.2092 10.248 59.7965 10.248V12.248ZM62.6676 12.8416C63.4235 13.2129 63.9435 13.6989 64.2803 14.2881L66.0167 13.2959C65.4575 12.3171 64.6175 11.5711 63.5494 11.0464L62.6676 12.8416ZM64.2926 14.3091C64.6557 14.9101 64.8445 15.593 64.8445 16.384H66.8445C66.8445 15.255 66.5693 14.2099 66.0044 13.2749L64.2926 14.3091ZM64.8445 16.384C64.8445 17.2802 64.5893 18.0768 64.0708 18.8028L65.6982 19.9652C66.4597 18.8992 66.8445 17.6958 66.8445 16.384H64.8445ZM64.0758 18.7958C63.5967 19.4546 62.8602 19.9522 61.7716 20.2416L62.2854 22.1744C63.7248 21.7918 64.8923 21.0734 65.6932 19.9722L64.0758 18.7958ZM61.1673 21.7162L65.1753 28.5082L66.8977 27.4918L62.8897 20.6998L61.1673 21.7162ZM66.0365 27H62.1485V29H66.0365V27ZM56.8685 19.952H59.6765V17.952H56.8685V19.952ZM59.6765 19.952C60.7279 19.952 61.705 19.7042 62.4106 19.0238L61.0224 17.5842C60.832 17.7678 60.4491 17.952 59.6765 17.952V19.952ZM62.4236 19.0111C63.1016 18.3331 63.3885 17.4385 63.3885 16.456H61.3885C61.3885 17.0415 61.2274 17.3789 61.0094 17.5969L62.4236 19.0111ZM63.3885 16.456C63.3885 15.486 63.0984 14.5986 62.397 13.9472L61.036 15.4128C61.2306 15.5934 61.3885 15.89 61.3885 16.456H63.3885ZM62.4106 13.9602C61.705 13.2798 60.7279 13.032 59.6765 13.032V15.032C60.4491 15.032 60.832 15.2162 61.0224 15.3998L62.4106 13.9602ZM59.6765 13.032H56.8685V15.032H59.6765V13.032ZM55.8685 14.032V18.952H57.8685V14.032H55.8685ZM77.9555 24.808L78.9006 24.4811L78.6678 23.808H77.9555V24.808ZM71.2835 24.808V23.808H70.5712L70.3384 24.4811L71.2835 24.808ZM70.1795 28V29H70.8918L71.1246 28.3269L70.1795 28ZM66.6515 28L65.7103 27.662L65.2299 29H66.6515V28ZM72.6755 11.224V10.224H71.9721L71.7343 10.886L72.6755 11.224ZM76.5875 11.224L77.5287 10.886L77.2909 10.224H76.5875V11.224ZM82.6115 28V29H84.0331L83.5527 27.662L82.6115 28ZM79.0595 28L78.1144 28.3269L78.3472 29H79.0595V28ZM77.0435 22.12V23.12H78.4475L77.9886 21.7931L77.0435 22.12ZM74.6195 15.112L75.5646 14.7851L74.6195 12.0529L73.6744 14.7851L74.6195 15.112ZM72.1955 22.12L71.2504 21.7931L70.7915 23.12H72.1955V22.12ZM77.9555 23.808H71.2835V25.808H77.9555V23.808ZM70.3384 24.4811L69.2344 27.6731L71.1246 28.3269L72.2286 25.1349L70.3384 24.4811ZM70.1795 27H66.6515V29H70.1795V27ZM67.5927 28.338L73.6167 11.562L71.7343 10.886L65.7103 27.662L67.5927 28.338ZM72.6755 12.224H76.5875V10.224H72.6755V12.224ZM75.6463 11.562L81.6703 28.338L83.5527 27.662L77.5287 10.886L75.6463 11.562ZM82.6115 27H79.0595V29H82.6115V27ZM80.0046 27.6731L78.9006 24.4811L77.0104 25.1349L78.1144 28.3269L80.0046 27.6731ZM77.9886 21.7931L75.5646 14.7851L73.6744 15.4389L76.0984 22.4469L77.9886 21.7931ZM73.6744 14.7851L71.2504 21.7931L73.1406 22.4469L75.5646 15.4389L73.6744 14.7851ZM72.1955 23.12H77.0435V21.12H72.1955V23.12ZM95.3272 16.288L94.4493 16.7669L94.7336 17.288H95.3272V16.288ZM86.9512 16.72L86.0637 16.2592L86.9512 16.72ZM86.9512 22.528L86.0637 22.9888L86.0672 22.9955L86.0707 23.0021L86.9512 22.528ZM88.7992 24.448L88.303 25.3162L88.7992 24.448ZM94.6792 24.112L95.3149 24.884L95.3238 24.8765L94.6792 24.112ZM96.2872 21.256L97.2657 21.462L97.5196 20.256H96.2872V21.256ZM90.5272 21.256H89.5272V22.256H90.5272V21.256ZM90.5272 18.688V17.688H89.5272V18.688H90.5272ZM99.5992 18.688H100.599V17.688H99.5992V18.688ZM99.5992 21.616L100.581 21.8043L100.599 21.711V21.616H99.5992ZM98.1592 24.856L97.3561 24.2602L98.1592 24.856ZM95.3032 27.256L95.7603 28.1454L95.7649 28.143L95.3032 27.256ZM87.0232 27.064L86.5294 27.9336L86.5357 27.9372L86.5421 27.9407L87.0232 27.064ZM83.9512 24.016L83.0816 24.5098L83.0863 24.5179L83.9512 24.016ZM83.9512 15.184L83.0836 14.6867L83.0816 14.6902L83.9512 15.184ZM87.0232 12.136L87.5088 13.0102L87.5124 13.0081L87.0232 12.136ZM96.3112 12.424L95.7565 13.2561L95.7632 13.2605L96.3112 12.424ZM99.1912 16.288V17.288H100.558L100.144 15.9856L99.1912 16.288ZM96.2051 15.8091C95.7339 14.9453 95.0715 14.2673 94.2235 13.8029L93.2629 15.5571C93.7589 15.8287 94.1525 16.2227 94.4493 16.7669L96.2051 15.8091ZM94.2235 13.8029C93.3811 13.3416 92.4265 13.128 91.3912 13.128V15.128C92.1479 15.128 92.7613 15.2824 93.2629 15.5571L94.2235 13.8029ZM91.3912 13.128C90.2431 13.128 89.1854 13.389 88.2473 13.9362L89.2551 15.6638C89.853 15.315 90.5553 15.128 91.3912 15.128V13.128ZM88.2473 13.9362C87.3068 14.4848 86.5779 15.2688 86.0637 16.2592L87.8387 17.1808C88.1885 16.5072 88.6595 16.0112 89.2551 15.6638L88.2473 13.9362ZM86.0637 16.2592C85.5467 17.2548 85.3032 18.3774 85.3032 19.6H87.3032C87.3032 18.6466 87.4916 17.8492 87.8387 17.1808L86.0637 16.2592ZM85.3032 19.6C85.3032 20.8494 85.5447 21.9893 86.0637 22.9888L87.8387 22.0672C87.4937 21.4028 87.3032 20.5906 87.3032 19.6H85.3032ZM86.0707 23.0021C86.6031 23.9908 87.3488 24.771 88.303 25.3162L89.2953 23.5798C88.6815 23.229 88.1953 22.7292 87.8317 22.0539L86.0707 23.0021ZM88.303 25.3162C89.2598 25.8629 90.3479 26.12 91.5352 26.12V24.12C90.6425 24.12 89.9066 23.9291 89.2953 23.5798L88.303 25.3162ZM91.5352 26.12C92.9964 26.12 94.2842 25.7327 95.3149 24.8839L94.0435 23.3401C93.4421 23.8353 92.634 24.12 91.5352 24.12V26.12ZM95.3238 24.8765C96.3373 24.022 96.9717 22.8588 97.2657 21.462L95.3086 21.05C95.0907 22.0852 94.653 22.826 94.0346 23.3475L95.3238 24.8765ZM96.2872 20.256H90.5272V22.256H96.2872V20.256ZM91.5272 21.256V18.688H89.5272V21.256H91.5272ZM90.5272 19.688H99.5992V17.688H90.5272V19.688ZM98.5992 18.688V21.616H100.599V18.688H98.5992ZM98.6171 21.4277C98.4225 22.4423 98.0061 23.384 97.3561 24.2602L98.9623 25.4518C99.7842 24.344 100.328 23.1257 100.581 21.8043L98.6171 21.4277ZM97.3561 24.2602C96.7163 25.1225 95.8841 25.8262 94.8415 26.369L95.7649 28.143C97.0582 27.4698 98.1301 26.5735 98.9623 25.4518L97.3561 24.2602ZM94.8461 26.3666C93.8507 26.8781 92.7142 27.144 91.4152 27.144V29.144C92.9961 29.144 94.4516 28.8179 95.7603 28.1454L94.8461 26.3666ZM91.4152 27.144C89.9536 27.144 88.6572 26.82 87.5043 26.1873L86.5421 27.9407C88.0132 28.748 89.6448 29.144 91.4152 29.144V27.144ZM87.517 26.1944C86.376 25.5464 85.4797 24.6577 84.8161 23.5141L83.0863 24.5179C83.9267 25.9663 85.0784 27.1096 86.5294 27.9336L87.517 26.1944ZM84.8207 23.5222C84.179 22.3922 83.8472 21.0936 83.8472 19.6H81.8472C81.8472 21.4024 82.2513 23.0478 83.0816 24.5098L84.8207 23.5222ZM83.8472 19.6C83.8472 18.1064 84.179 16.8078 84.8207 15.6778L83.0816 14.6902C82.2513 16.1522 81.8472 17.7976 81.8472 19.6H83.8472ZM84.8188 15.6813C85.4821 14.524 86.3754 13.6398 87.5088 13.0102L86.5375 11.2618C85.0789 12.0722 83.9243 13.22 83.0836 14.6867L84.8188 15.6813ZM87.5124 13.0081C88.6655 12.3613 89.9513 12.032 91.3912 12.032V10.032C89.6311 10.032 88.0049 10.4387 86.5339 11.2639L87.5124 13.0081ZM91.3912 12.032C93.108 12.032 94.5493 12.4513 95.7565 13.256L96.8659 11.5919C95.2891 10.5407 93.4504 10.032 91.3912 10.032V12.032ZM95.7632 13.2605C96.9527 14.0398 97.7759 15.1341 98.238 16.5904L100.144 15.9856C99.5505 14.1139 98.4536 12.6322 96.8592 11.5875L95.7632 13.2605ZM99.1912 15.288H95.3272V17.288H99.1912V15.288ZM104.245 13.96V12.96H103.245V13.96H104.245ZM104.245 18.16H103.245V19.16H104.245V18.16ZM109.885 18.16H110.885V17.16H109.885V18.16ZM109.885 20.824V21.824H110.885V20.824H109.885ZM104.245 20.824V19.824H103.245V20.824H104.245ZM104.245 25.264H103.245V26.264H104.245V25.264ZM110.605 25.264H111.605V24.264H110.605V25.264ZM110.605 28V29H111.605V28H110.605ZM100.885 28H99.8851V29H100.885V28ZM100.885 11.224V10.224H99.8851V11.224H100.885ZM110.605 11.224H111.605V10.224H110.605V11.224ZM110.605 13.96V14.96H111.605V13.96H110.605ZM103.245 13.96V18.16H105.245V13.96H103.245ZM104.245 19.16H109.885V17.16H104.245V19.16ZM108.885 18.16V20.824H110.885V18.16H108.885ZM109.885 19.824H104.245V21.824H109.885V19.824ZM103.245 20.824V25.264H105.245V20.824H103.245ZM104.245 26.264H110.605V24.264H104.245V26.264ZM109.605 25.264V28H111.605V25.264H109.605ZM110.605 27H100.885V29H110.605V27ZM101.885 28V11.224H99.8851V28H101.885ZM100.885 12.224H110.605V10.224H100.885V12.224ZM109.605 11.224V13.96H111.605V11.224H109.605ZM110.605 12.96H104.245V14.96H110.605V12.96Z" fill="#2F3E46"/>
</g>
<g filter="url(#filter1_f)">
<path d="M19.0387 60.252C17.2868 60.252 15.7028 59.952 14.2867 59.352C12.8947 58.752 11.7907 57.888 10.9747 56.76C10.1587 55.632 9.73875 54.3 9.71475 52.764H15.1148C15.1868 53.796 15.5468 54.612 16.1948 55.212C16.8668 55.812 17.7788 56.112 18.9308 56.112C20.1068 56.112 21.0308 55.836 21.7027 55.284C22.3748 54.708 22.7108 53.964 22.7108 53.052C22.7108 52.308 22.4828 51.696 22.0268 51.216C21.5708 50.736 20.9948 50.364 20.2988 50.1C19.6268 49.812 18.6908 49.5 17.4908 49.164C15.8588 48.684 14.5268 48.216 13.4947 47.76C12.4868 47.28 11.6108 46.572 10.8668 45.636C10.1467 44.676 9.78675 43.404 9.78675 41.82C9.78675 40.332 10.1587 39.036 10.9028 37.932C11.6467 36.828 12.6907 35.988 14.0347 35.412C15.3788 34.812 16.9148 34.512 18.6428 34.512C21.2348 34.512 23.3348 35.148 24.9428 36.42C26.5748 37.668 27.4748 39.42 27.6428 41.676H22.0988C22.0508 40.812 21.6788 40.104 20.9828 39.552C20.3108 38.976 19.4108 38.688 18.2828 38.688C17.2988 38.688 16.5068 38.94 15.9068 39.444C15.3308 39.948 15.0428 40.68 15.0428 41.64C15.0428 42.312 15.2588 42.876 15.6908 43.332C16.1468 43.764 16.6988 44.124 17.3468 44.412C18.0188 44.676 18.9548 44.988 20.1548 45.348C21.7868 45.828 23.1188 46.308 24.1508 46.788C25.1828 47.268 26.0708 47.988 26.8148 48.948C27.5588 49.908 27.9308 51.168 27.9308 52.728C27.9308 54.072 27.5828 55.32 26.8867 56.472C26.1908 57.624 25.1708 58.548 23.8268 59.244C22.4828 59.916 20.8868 60.252 19.0387 60.252ZM41.4922 45.96V50.16H47.1323V52.824H41.4922V57.264H47.8523V60H38.1322V43.224H47.8523V45.96H41.4922ZM54.6257 57.336H60.1457V60H51.2657V43.248H54.6257V57.336ZM66.0013 57.336H71.5213V60H62.6413V43.248H66.0013V57.336ZM77.3769 45.96V50.16H83.0169V52.824H77.3769V57.264H83.7369V60H74.0169V43.224H83.7369V45.96H77.3769ZM95.7904 60L92.0944 53.472H90.5104V60H87.1504V43.248H93.4384C94.7344 43.248 95.8384 43.48 96.7504 43.944C97.6624 44.392 98.3424 45.008 98.7904 45.792C99.2544 46.56 99.4864 47.424 99.4864 48.384C99.4864 49.488 99.1664 50.488 98.5264 51.384C97.8864 52.264 96.9344 52.872 95.6704 53.208L99.6784 60H95.7904ZM90.5104 50.952H93.3184C94.2304 50.952 94.9104 50.736 95.3584 50.304C95.8064 49.856 96.0304 49.24 96.0304 48.456C96.0304 47.688 95.8064 47.096 95.3584 46.68C94.9104 46.248 94.2304 46.032 93.3184 46.032H90.5104V50.952ZM108.669 60.168C107.501 60.168 106.445 59.968 105.501 59.568C104.573 59.168 103.837 58.592 103.293 57.84C102.749 57.088 102.469 56.2 102.453 55.176H106.053C106.101 55.864 106.341 56.408 106.773 56.808C107.221 57.208 107.829 57.408 108.597 57.408C109.381 57.408 109.997 57.224 110.445 56.856C110.893 56.472 111.117 55.976 111.117 55.368C111.117 54.872 110.965 54.464 110.661 54.144C110.357 53.824 109.973 53.576 109.509 53.4C109.061 53.208 108.437 53 107.637 52.776C106.549 52.456 105.661 52.144 104.973 51.84C104.301 51.52 103.717 51.048 103.221 50.424C102.741 49.784 102.501 48.936 102.501 47.88C102.501 46.888 102.749 46.024 103.245 45.288C103.741 44.552 104.437 43.992 105.333 43.608C106.229 43.208 107.253 43.008 108.405 43.008C110.133 43.008 111.533 43.432 112.605 44.28C113.693 45.112 114.293 46.28 114.405 47.784H110.709C110.677 47.208 110.429 46.736 109.965 46.368C109.517 45.984 108.917 45.792 108.165 45.792C107.509 45.792 106.981 45.96 106.581 46.296C106.197 46.632 106.005 47.12 106.005 47.76C106.005 48.208 106.149 48.584 106.437 48.888C106.741 49.176 107.109 49.416 107.541 49.608C107.989 49.784 108.613 49.992 109.413 50.232C110.501 50.552 111.389 50.872 112.077 51.192C112.765 51.512 113.357 51.992 113.853 52.632C114.349 53.272 114.597 54.112 114.597 55.152C114.597 56.048 114.365 56.88 113.901 57.648C113.437 58.416 112.757 59.032 111.861 59.496C110.965 59.944 109.901 60.168 108.669 60.168Z" fill="#CAD2C5"/>
<path d="M14.2867 59.352L13.8909 60.2703L13.8966 60.2728L14.2867 59.352ZM10.9747 56.76L10.1645 57.3461L10.9747 56.76ZM9.71475 52.764V51.764H8.699L8.71487 52.7796L9.71475 52.764ZM15.1147 52.764L16.1123 52.6944L16.0474 51.764H15.1147V52.764ZM16.1947 55.212L15.5153 55.9458L15.522 55.9519L15.5287 55.9579L16.1947 55.212ZM21.7027 55.284L22.3375 56.0567L22.3456 56.0501L22.3535 56.0433L21.7027 55.284ZM22.0268 51.216L21.3018 51.9047L22.0268 51.216ZM20.2988 50.1L19.9048 51.0191L19.9243 51.0275L19.9441 51.035L20.2988 50.1ZM17.4908 49.164L17.2086 50.1234L17.2211 50.127L17.4908 49.164ZM13.4948 47.76L13.0648 48.6629L13.0776 48.669L13.0906 48.6747L13.4948 47.76ZM10.8667 45.636L10.0668 46.236L10.0752 46.2472L10.0839 46.2582L10.8667 45.636ZM10.9028 37.932L11.732 38.4909V38.4909L10.9028 37.932ZM14.0347 35.412L14.4287 36.3311L14.4356 36.3282L14.4424 36.3251L14.0347 35.412ZM24.9428 36.42L24.3223 37.2043L24.3288 37.2094L24.3353 37.2144L24.9428 36.42ZM27.6427 41.676V42.676H28.72L28.64 41.6017L27.6427 41.676ZM22.0988 41.676L21.1003 41.7315L21.1528 42.676H22.0988V41.676ZM20.9827 39.552L20.332 40.3113L20.3464 40.3237L20.3614 40.3355L20.9827 39.552ZM15.9067 39.444L15.2636 38.6783L15.2558 38.6848L15.2482 38.6914L15.9067 39.444ZM15.6908 43.332L14.9648 44.0197L14.9834 44.0394L15.003 44.058L15.6908 43.332ZM17.3468 44.412L16.9406 45.3258L16.9607 45.3347L16.9811 45.3428L17.3468 44.412ZM20.1548 45.348L19.8674 46.3058L19.8726 46.3074L20.1548 45.348ZM26.8148 48.948L26.0243 49.5606L26.8148 48.948ZM26.8867 56.472L26.0308 55.9549L26.8867 56.472ZM23.8267 59.244L24.274 60.1384L24.2803 60.1353L24.2866 60.132L23.8267 59.244ZM19.0387 59.252C17.4022 59.252 15.9535 58.9722 14.6769 58.4312L13.8966 60.2728C15.452 60.9318 17.1713 61.252 19.0387 61.252V59.252ZM14.6826 58.4337C13.4409 57.8985 12.486 57.143 11.785 56.1739L10.1645 57.3461C11.0955 58.633 12.3486 59.6055 13.8909 60.2703L14.6826 58.4337ZM11.785 56.1739C11.1016 55.2292 10.7358 54.1014 10.7146 52.7484L8.71487 52.7796C8.74173 54.4985 9.2159 56.0348 10.1645 57.3461L11.785 56.1739ZM9.71475 53.764H15.1147V51.764H9.71475V53.764ZM14.1172 52.8336C14.2036 54.0729 14.6491 55.1437 15.5153 55.9458L16.8742 54.4782C16.4444 54.0803 16.1699 53.5191 16.1123 52.6944L14.1172 52.8336ZM15.5287 55.9579C16.4306 56.7632 17.6037 57.112 18.9307 57.112V55.112C17.9538 55.112 17.3029 54.8608 16.8608 54.4661L15.5287 55.9579ZM18.9307 57.112C20.2568 57.112 21.4324 56.8002 22.3375 56.0567L21.068 54.5113C20.6291 54.8718 19.9567 55.112 18.9307 55.112V57.112ZM22.3535 56.0433C23.2548 55.2707 23.7108 54.2457 23.7108 53.052H21.7108C21.7108 53.6823 21.4947 54.1453 21.052 54.5247L22.3535 56.0433ZM23.7108 53.052C23.7108 52.086 23.4066 51.2166 22.7517 50.5273L21.3018 51.9047C21.5589 52.1754 21.7108 52.53 21.7108 53.052H23.7108ZM22.7517 50.5273C22.1801 49.9256 21.4722 49.4756 20.6534 49.165L19.9441 51.035C20.5173 51.2524 20.9614 51.5464 21.3018 51.9047L22.7517 50.5273ZM20.6927 49.1809C19.9619 48.8677 18.9777 48.5419 17.7604 48.201L17.2211 50.127C18.4038 50.4581 19.2916 50.7563 19.9048 51.0191L20.6927 49.1809ZM17.7729 48.2046C16.1639 47.7314 14.8768 47.2774 13.8989 46.8453L13.0906 48.6747C14.1767 49.1546 15.5536 49.6366 17.2086 50.1234L17.7729 48.2046ZM13.9247 46.8571C13.0638 46.4472 12.3057 45.8392 11.6496 45.0138L10.0839 46.2582C10.9158 47.3048 11.9097 48.1128 13.0648 48.6629L13.9247 46.8571ZM11.6667 45.036C11.1126 44.2972 10.7867 43.2566 10.7867 41.82H8.78675C8.78675 43.5514 9.18087 45.0548 10.0668 46.236L11.6667 45.036ZM10.7867 41.82C10.7867 40.5068 11.1122 39.4106 11.732 38.4909L10.0735 37.3731C9.20534 38.6614 8.78675 40.1572 8.78675 41.82H10.7867ZM11.732 38.4909C12.3581 37.5618 13.2434 36.8391 14.4287 36.3311L13.6408 34.4929C12.1381 35.1369 10.9354 36.0942 10.0735 37.3731L11.732 38.4909ZM14.4424 36.3251C15.6377 35.7915 17.031 35.512 18.6427 35.512V33.512C16.7985 33.512 15.1198 33.8325 13.6271 34.4989L14.4424 36.3251ZM18.6427 35.512C21.0701 35.512 22.9332 36.1054 24.3223 37.2043L25.5632 35.6357C23.7363 34.1906 21.3994 33.512 18.6427 33.512V35.512ZM24.3353 37.2144C25.7161 38.2703 26.4963 39.7467 26.6455 41.7503L28.64 41.6017C28.4532 39.0933 27.4334 37.0657 25.5502 35.6256L24.3353 37.2144ZM27.6427 40.676H22.0988V42.676H27.6427V40.676ZM23.0972 41.6205C23.0329 40.4626 22.5173 39.4927 21.6041 38.7685L20.3614 40.3355C20.8402 40.7153 21.0686 41.1614 21.1003 41.7315L23.0972 41.6205ZM21.6335 38.7927C20.7351 38.0226 19.5822 37.688 18.2827 37.688V39.688C19.2393 39.688 19.8864 39.9294 20.332 40.3113L21.6335 38.7927ZM18.2827 37.688C17.1253 37.688 16.086 37.9874 15.2636 38.6783L16.5499 40.2097C16.9275 39.8926 17.4722 39.688 18.2827 39.688V37.688ZM15.2482 38.6914C14.4021 39.4318 14.0428 40.4707 14.0428 41.64H16.0428C16.0428 40.8893 16.2594 40.4642 16.5653 40.1966L15.2482 38.6914ZM14.0428 41.64C14.0428 42.5482 14.3438 43.3642 14.9648 44.0197L16.4167 42.6443C16.1737 42.3878 16.0428 42.0758 16.0428 41.64H14.0428ZM15.003 44.058C15.5514 44.5775 16.202 44.9975 16.9406 45.3258L17.7529 43.4982C17.1955 43.2505 16.7421 42.9505 16.3785 42.606L15.003 44.058ZM16.9811 45.3428C17.6908 45.6216 18.6571 45.9427 19.8674 46.3058L20.4421 44.3902C19.2524 44.0333 18.3467 43.7304 17.7124 43.4812L16.9811 45.3428ZM19.8726 46.3074C21.4777 46.7795 22.7584 47.2433 23.729 47.6947L24.5725 45.8813C23.4791 45.3727 22.0958 44.8765 20.4369 44.3886L19.8726 46.3074ZM23.729 47.6947C24.6068 48.103 25.3713 48.7179 26.0243 49.5606L27.6052 48.3354C26.7702 47.2581 25.7587 46.433 24.5725 45.8813L23.729 47.6947ZM26.0243 49.5606C26.598 50.3008 26.9308 51.3261 26.9308 52.728H28.9308C28.9308 51.0099 28.5195 49.5152 27.6052 48.3354L26.0243 49.5606ZM26.9308 52.728C26.9308 53.8894 26.6327 54.9587 26.0308 55.9549L27.7427 56.9891C28.5328 55.6813 28.9308 54.2546 28.9308 52.728H26.9308ZM26.0308 55.9549C25.4416 56.9301 24.5681 57.7339 23.3669 58.356L24.2866 60.132C25.7734 59.3621 26.9399 58.3179 27.7427 56.9891L26.0308 55.9549ZM23.3795 58.3496C22.2027 58.938 20.7665 59.252 19.0387 59.252V61.252C21.007 61.252 22.7628 60.894 24.274 60.1384L23.3795 58.3496ZM41.4922 45.96V44.96H40.4922V45.96H41.4922ZM41.4922 50.16H40.4922V51.16H41.4922V50.16ZM47.1323 50.16H48.1323V49.16H47.1323V50.16ZM47.1323 52.824V53.824H48.1323V52.824H47.1323ZM41.4922 52.824V51.824H40.4922V52.824H41.4922ZM41.4922 57.264H40.4922V58.264H41.4922V57.264ZM47.8522 57.264H48.8522V56.264H47.8522V57.264ZM47.8522 60V61H48.8522V60H47.8522ZM38.1322 60H37.1322V61H38.1322V60ZM38.1322 43.224V42.224H37.1322V43.224H38.1322ZM47.8522 43.224H48.8522V42.224H47.8522V43.224ZM47.8522 45.96V46.96H48.8522V45.96H47.8522ZM40.4922 45.96V50.16H42.4922V45.96H40.4922ZM41.4922 51.16H47.1323V49.16H41.4922V51.16ZM46.1323 50.16V52.824H48.1323V50.16H46.1323ZM47.1323 51.824H41.4922V53.824H47.1323V51.824ZM40.4922 52.824V57.264H42.4922V52.824H40.4922ZM41.4922 58.264H47.8522V56.264H41.4922V58.264ZM46.8522 57.264V60H48.8522V57.264H46.8522ZM47.8522 59H38.1322V61H47.8522V59ZM39.1322 60V43.224H37.1322V60H39.1322ZM38.1322 44.224H47.8522V42.224H38.1322V44.224ZM46.8522 43.224V45.96H48.8522V43.224H46.8522ZM47.8522 44.96H41.4922V46.96H47.8522V44.96ZM54.6257 57.336H53.6257V58.336H54.6257V57.336ZM60.1457 57.336H61.1457V56.336H60.1457V57.336ZM60.1457 60V61H61.1457V60H60.1457ZM51.2657 60H50.2657V61H51.2657V60ZM51.2657 43.248V42.248H50.2657V43.248H51.2657ZM54.6257 43.248H55.6257V42.248H54.6257V43.248ZM54.6257 58.336H60.1457V56.336H54.6257V58.336ZM59.1457 57.336V60H61.1457V57.336H59.1457ZM60.1457 59H51.2657V61H60.1457V59ZM52.2657 60V43.248H50.2657V60H52.2657ZM51.2657 44.248H54.6257V42.248H51.2657V44.248ZM53.6257 43.248V57.336H55.6257V43.248H53.6257ZM66.0013 57.336H65.0013V58.336H66.0013V57.336ZM71.5213 57.336H72.5213V56.336H71.5213V57.336ZM71.5213 60V61H72.5213V60H71.5213ZM62.6413 60H61.6413V61H62.6413V60ZM62.6413 43.248V42.248H61.6413V43.248H62.6413ZM66.0013 43.248H67.0013V42.248H66.0013V43.248ZM66.0013 58.336H71.5213V56.336H66.0013V58.336ZM70.5213 57.336V60H72.5213V57.336H70.5213ZM71.5213 59H62.6413V61H71.5213V59ZM63.6413 60V43.248H61.6413V60H63.6413ZM62.6413 44.248H66.0013V42.248H62.6413V44.248ZM65.0013 43.248V57.336H67.0013V43.248H65.0013ZM77.3769 45.96V44.96H76.3769V45.96H77.3769ZM77.3769 50.16H76.3769V51.16H77.3769V50.16ZM83.0169 50.16H84.0169V49.16H83.0169V50.16ZM83.0169 52.824V53.824H84.0169V52.824H83.0169ZM77.3769 52.824V51.824H76.3769V52.824H77.3769ZM77.3769 57.264H76.3769V58.264H77.3769V57.264ZM83.7369 57.264H84.7369V56.264H83.7369V57.264ZM83.7369 60V61H84.7369V60H83.7369ZM74.0169 60H73.0169V61H74.0169V60ZM74.0169 43.224V42.224H73.0169V43.224H74.0169ZM83.7369 43.224H84.7369V42.224H83.7369V43.224ZM83.7369 45.96V46.96H84.7369V45.96H83.7369ZM76.3769 45.96V50.16H78.3769V45.96H76.3769ZM77.3769 51.16H83.0169V49.16H77.3769V51.16ZM82.0169 50.16V52.824H84.0169V50.16H82.0169ZM83.0169 51.824H77.3769V53.824H83.0169V51.824ZM76.3769 52.824V57.264H78.3769V52.824H76.3769ZM77.3769 58.264H83.7369V56.264H77.3769V58.264ZM82.7369 57.264V60H84.7369V57.264H82.7369ZM83.7369 59H74.0169V61H83.7369V59ZM75.0169 60V43.224H73.0169V60H75.0169ZM74.0169 44.224H83.7369V42.224H74.0169V44.224ZM82.7369 43.224V45.96H84.7369V43.224H82.7369ZM83.7369 44.96H77.3769V46.96H83.7369V44.96ZM95.7904 60L94.9202 60.4927L95.2074 61H95.7904V60ZM92.0944 53.472L92.9646 52.9793L92.6774 52.472H92.0944V53.472ZM90.5104 53.472V52.472H89.5104V53.472H90.5104ZM90.5104 60V61H91.5104V60H90.5104ZM87.1504 60H86.1504V61H87.1504V60ZM87.1504 43.248V42.248H86.1504V43.248H87.1504ZM96.7504 43.944L96.2969 44.8354L96.3095 44.8416L96.7504 43.944ZM98.7904 45.792L97.9221 46.2881L97.9282 46.2987L97.9345 46.3091L98.7904 45.792ZM98.5264 51.384L99.3351 51.9722L99.3401 51.9652L98.5264 51.384ZM95.6704 53.208L95.4135 52.2416L94.1389 52.5804L94.8092 53.7162L95.6704 53.208ZM99.6784 60V61H101.43L100.54 59.4918L99.6784 60ZM90.5104 50.952H89.5104V51.952H90.5104V50.952ZM95.3584 50.304L96.0525 51.0238L96.0591 51.0175L96.0655 51.0111L95.3584 50.304ZM95.3584 46.68L94.6642 47.3998L94.671 47.4064L94.6779 47.4128L95.3584 46.68ZM90.5104 46.032V45.032H89.5104V46.032H90.5104ZM96.6606 59.5073L92.9646 52.9793L91.2242 53.9647L94.9202 60.4927L96.6606 59.5073ZM92.0944 52.472H90.5104V54.472H92.0944V52.472ZM89.5104 53.472V60H91.5104V53.472H89.5104ZM90.5104 59H87.1504V61H90.5104V59ZM88.1504 60V43.248H86.1504V60H88.1504ZM87.1504 44.248H93.4384V42.248H87.1504V44.248ZM93.4384 44.248C94.6177 44.248 95.5578 44.4592 96.2969 44.8353L97.2038 43.0527C96.1189 42.5008 94.8511 42.248 93.4384 42.248V44.248ZM96.3095 44.8416C97.0654 45.2129 97.5854 45.6989 97.9221 46.2881L99.6586 45.2959C99.0993 44.3171 98.2593 43.5711 97.1913 43.0464L96.3095 44.8416ZM97.9345 46.3091C98.2976 46.9101 98.4864 47.593 98.4864 48.384H100.486C100.486 47.255 100.211 46.2099 99.6463 45.2749L97.9345 46.3091ZM98.4864 48.384C98.4864 49.2802 98.2312 50.0768 97.7126 50.8028L99.3401 51.9652C100.102 50.8992 100.486 49.6958 100.486 48.384H98.4864ZM97.7176 50.7958C97.2385 51.4546 96.5021 51.9522 95.4135 52.2416L95.9273 54.1744C97.3667 53.7918 98.5342 53.0734 99.3351 51.9722L97.7176 50.7958ZM94.8092 53.7162L98.8171 60.5082L100.54 59.4918L96.5316 52.6998L94.8092 53.7162ZM99.6784 59H95.7904V61H99.6784V59ZM90.5104 51.952H93.3184V49.952H90.5104V51.952ZM93.3184 51.952C94.3698 51.952 95.3469 51.7042 96.0525 51.0238L94.6642 49.5842C94.4738 49.7678 94.091 49.952 93.3184 49.952V51.952ZM96.0655 51.0111C96.7435 50.3331 97.0304 49.4385 97.0304 48.456H95.0304C95.0304 49.0415 94.8693 49.3789 94.6513 49.5969L96.0655 51.0111ZM97.0304 48.456C97.0304 47.486 96.7403 46.5986 96.0388 45.9472L94.6779 47.4128C94.8724 47.5934 95.0304 47.89 95.0304 48.456H97.0304ZM96.0525 45.9602C95.3469 45.2798 94.3698 45.032 93.3184 45.032V47.032C94.091 47.032 94.4738 47.2162 94.6642 47.3998L96.0525 45.9602ZM93.3184 45.032H90.5104V47.032H93.3184V45.032ZM89.5104 46.032V50.952H91.5104V46.032H89.5104ZM105.501 59.568L105.106 60.4863L105.111 60.4888L105.501 59.568ZM103.293 57.84L102.483 58.4261L103.293 57.84ZM102.453 55.176V54.176H101.438L101.453 55.1916L102.453 55.176ZM106.053 55.176L107.051 55.1064L106.986 54.176H106.053V55.176ZM106.773 56.808L106.094 57.5418L106.101 57.5479L106.107 57.5539L106.773 56.808ZM110.445 56.856L111.08 57.6287L111.088 57.6221L111.096 57.6153L110.445 56.856ZM110.661 54.144L109.936 54.8327L110.661 54.144ZM109.509 53.4L109.115 54.3191L109.135 54.3275L109.155 54.335L109.509 53.4ZM107.637 52.776L107.355 53.7354L107.368 53.739L107.637 52.776ZM104.973 51.84L104.543 52.7429L104.556 52.749L104.569 52.7547L104.973 51.84ZM103.221 50.424L102.421 51.024L102.43 51.0352L102.439 51.0462L103.221 50.424ZM103.245 45.288L104.075 45.8469L103.245 45.288ZM105.333 43.608L105.727 44.5271L105.734 44.5242L105.741 44.5211L105.333 43.608ZM112.605 44.28L111.985 45.0643L111.991 45.0694L111.998 45.0744L112.605 44.28ZM114.405 47.784V48.784H115.483L115.403 47.7097L114.405 47.784ZM110.709 47.784L109.711 47.8395L109.763 48.784H110.709V47.784ZM109.965 46.368L109.315 47.1273L109.329 47.1397L109.344 47.1515L109.965 46.368ZM106.581 46.296L105.938 45.5303L105.93 45.5368L105.923 45.5434L106.581 46.296ZM106.437 48.888L105.711 49.5757L105.73 49.5954L105.75 49.614L106.437 48.888ZM107.541 49.608L107.135 50.5218L107.155 50.5307L107.176 50.5388L107.541 49.608ZM109.413 50.232L109.126 51.1898L109.131 51.1914L109.413 50.232ZM113.853 52.632L113.063 53.2446L113.853 52.632ZM113.901 57.648L113.045 57.1309L113.901 57.648ZM111.861 59.496L112.309 60.3904L112.315 60.3873L112.321 60.384L111.861 59.496ZM108.669 59.168C107.617 59.168 106.696 58.9882 105.892 58.6472L105.111 60.4888C106.195 60.9478 107.386 61.168 108.669 61.168V59.168ZM105.897 58.6497C105.12 58.3145 104.533 57.847 104.104 57.2539L102.483 58.4261C103.142 59.337 104.027 60.0215 105.106 60.4863L105.897 58.6497ZM104.104 57.2539C103.692 56.6852 103.466 56.0014 103.453 55.1604L101.453 55.1916C101.472 56.3986 101.807 57.4908 102.483 58.4261L104.104 57.2539ZM102.453 56.176H106.053V54.176H102.453V56.176ZM105.056 55.2456C105.118 56.1409 105.444 56.9397 106.094 57.5418L107.453 56.0742C107.239 55.8763 107.084 55.5871 107.051 55.1064L105.056 55.2456ZM106.107 57.5539C106.785 58.1592 107.654 58.408 108.597 58.408V56.408C108.004 56.408 107.658 56.2568 107.439 56.0621L106.107 57.5539ZM108.597 58.408C109.531 58.408 110.399 58.1882 111.08 57.6287L109.811 56.0833C109.596 56.2598 109.231 56.408 108.597 56.408V58.408ZM111.096 57.6153C111.773 57.0347 112.117 56.2577 112.117 55.368H110.117C110.117 55.6943 110.013 55.9093 109.795 56.0967L111.096 57.6153ZM112.117 55.368C112.117 54.65 111.889 53.9846 111.386 53.4552L109.936 54.8327C110.041 54.9434 110.117 55.094 110.117 55.368H112.117ZM111.386 53.4552C110.967 53.0136 110.451 52.6876 109.864 52.465L109.155 54.335C109.496 54.4644 109.748 54.6344 109.936 54.8327L111.386 53.4552ZM109.903 52.4809C109.397 52.2637 108.724 52.0419 107.907 51.813L107.368 53.739C108.15 53.9581 108.726 54.1523 109.115 54.3191L109.903 52.4809ZM107.92 51.8166C106.855 51.5034 106.011 51.2054 105.378 50.9253L104.569 52.7547C105.311 53.0826 106.244 53.4086 107.355 53.7354L107.92 51.8166ZM105.403 50.9371C104.878 50.6872 104.412 50.3152 104.004 49.8018L102.439 51.0462C103.022 51.7808 103.724 52.3528 104.543 52.7429L105.403 50.9371ZM104.021 49.824C103.707 49.4052 103.501 48.7886 103.501 47.88H101.501C101.501 49.0834 101.775 50.1628 102.421 51.024L104.021 49.824ZM103.501 47.88C103.501 47.0628 103.703 46.3986 104.075 45.8469L102.416 44.7291C101.796 45.6494 101.501 46.7132 101.501 47.88H103.501ZM104.075 45.8469C104.453 45.2858 104.99 44.8431 105.727 44.5271L104.939 42.6889C103.885 43.1409 103.03 43.8182 102.416 44.7291L104.075 45.8469ZM105.741 44.5211C106.488 44.1875 107.37 44.008 108.405 44.008V42.008C107.137 42.008 105.97 42.2285 104.926 42.6949L105.741 44.5211ZM108.405 44.008C109.969 44.008 111.132 44.3894 111.985 45.0643L113.226 43.4957C111.935 42.4746 110.298 42.008 108.405 42.008V44.008ZM111.998 45.0744C112.835 45.7143 113.315 46.6067 113.408 47.8583L115.403 47.7097C115.272 45.9533 114.552 44.5097 113.213 43.4856L111.998 45.0744ZM114.405 46.784H110.709V48.784H114.405V46.784ZM111.708 47.7285C111.66 46.8586 111.268 46.1247 110.587 45.5845L109.344 47.1515C109.591 47.3473 109.695 47.5574 109.711 47.8395L111.708 47.7285ZM110.616 45.6087C109.942 45.0306 109.089 44.792 108.165 44.792V46.792C108.746 46.792 109.093 46.9374 109.315 47.1273L110.616 45.6087ZM108.165 44.792C107.336 44.792 106.561 45.0074 105.938 45.5303L107.225 47.0617C107.402 46.9126 107.683 46.792 108.165 46.792V44.792ZM105.923 45.5434C105.269 46.1158 105.005 46.9107 105.005 47.76H107.005C107.005 47.3293 107.126 47.1482 107.24 47.0486L105.923 45.5434ZM105.005 47.76C105.005 48.4442 105.234 49.0722 105.711 49.5757L107.163 48.2003C107.064 48.0958 107.005 47.9718 107.005 47.76H105.005ZM105.75 49.614C106.146 49.9895 106.613 50.2895 107.135 50.5218L107.948 48.6942C107.606 48.5425 107.337 48.3625 107.125 48.162L105.75 49.614ZM107.176 50.5388C107.661 50.7296 108.316 50.9467 109.126 51.1898L109.701 49.2742C108.911 49.0373 108.317 48.8384 107.907 48.6772L107.176 50.5388ZM109.131 51.1914C110.192 51.5035 111.029 51.8073 111.656 52.0987L112.499 50.2853C111.75 49.9367 110.81 49.6005 109.696 49.2726L109.131 51.1914ZM111.656 52.0987C112.189 52.347 112.658 52.7219 113.063 53.2446L114.644 52.0194C114.057 51.2621 113.341 50.677 112.499 50.2853L111.656 52.0987ZM113.063 53.2446C113.389 53.6648 113.597 54.2701 113.597 55.152H115.597C115.597 53.9539 115.31 52.8792 114.644 52.0194L113.063 53.2446ZM113.597 55.152C113.597 55.8654 113.415 56.5187 113.045 57.1309L114.757 58.1651C115.315 57.2413 115.597 56.2306 115.597 55.152H113.597ZM113.045 57.1309C112.688 57.7221 112.155 58.2179 111.402 58.608L112.321 60.384C113.36 59.8461 114.186 59.1099 114.757 58.1651L113.045 57.1309ZM111.414 58.6016C110.685 58.966 109.781 59.168 108.669 59.168V61.168C110.022 61.168 111.245 60.922 112.309 60.3904L111.414 58.6016Z" fill="#2F3E46"/>
</g>
<defs>
<filter id="filter0_f" x="4.26001" y="0.548096" width="108.345" height="29.668" filterUnits="userSpaceOnUse" color-interpolation-filters="sRGB">
<feFlood flood-opacity="0" result="BackgroundImageFix"/>
<feBlend mode="normal" in="SourceGraphic" in2="BackgroundImageFix" result="shape"/>
<feGaussianBlur stdDeviation="0.5" result="effect1_foregroundBlur"/>
</filter>
<filter id="filter1_f" x="7.69897" y="32.512" width="108.898" height="29.74" filterUnits="userSpaceOnUse" color-interpolation-filters="sRGB">
<feFlood flood-opacity="0" result="BackgroundImageFix"/>
<feBlend mode="normal" in="SourceGraphic" in2="BackgroundImageFix" result="shape"/>
<feGaussianBlur stdDeviation="0.5" result="effect1_foregroundBlur"/>
</filter>
</defs>
</svg>
