<svg width="143" height="30" viewBox="0 0 143 30" fill="none" xmlns="http://www.w3.org/2000/svg">
<rect width="143" height="30" rx="15" fill="#CAD2C5"/>
<path d="M41.144 9.512C42.152 9.512 43.048 9.736 43.832 10.184C44.616 10.616 45.224 11.264 45.656 12.128C46.104 12.976 46.328 14 46.328 15.2V23H42.968V15.656C42.968 14.6 42.704 13.792 42.176 13.232C41.648 12.656 40.928 12.368 40.016 12.368C39.088 12.368 38.352 12.656 37.808 13.232C37.28 13.792 37.016 14.6 37.016 15.656V23H33.656V5.24H37.016V11.36C37.448 10.784 38.024 10.336 38.744 10.016C39.464 9.68 40.264 9.512 41.144 9.512ZM57.5872 23.216C56.3072 23.216 55.1552 22.936 54.1312 22.376C53.1072 21.8 52.2992 20.992 51.7072 19.952C51.1312 18.912 50.8432 17.712 50.8432 16.352C50.8432 14.992 51.1392 13.792 51.7312 12.752C52.3392 11.712 53.1632 10.912 54.2032 10.352C55.2432 9.776 56.4032 9.488 57.6832 9.488C58.9632 9.488 60.1232 9.776 61.1632 10.352C62.2032 10.912 63.0192 11.712 63.6112 12.752C64.2192 13.792 64.5232 14.992 64.5232 16.352C64.5232 17.712 64.2112 18.912 63.5872 19.952C62.9792 20.992 62.1472 21.8 61.0912 22.376C60.0512 22.936 58.8832 23.216 57.5872 23.216ZM57.5872 20.288C58.1952 20.288 58.7632 20.144 59.2912 19.856C59.8352 19.552 60.2672 19.104 60.5872 18.512C60.9072 17.92 61.0672 17.2 61.0672 16.352C61.0672 15.088 60.7312 14.12 60.0592 13.448C59.4032 12.76 58.5952 12.416 57.6352 12.416C56.6752 12.416 55.8672 12.76 55.2112 13.448C54.5712 14.12 54.2512 15.088 54.2512 16.352C54.2512 17.616 54.5632 18.592 55.1872 19.28C55.8272 19.952 56.6272 20.288 57.5872 20.288ZM85.6599 9.512C87.2919 9.512 88.6039 10.016 89.5959 11.024C90.6039 12.016 91.1079 13.408 91.1079 15.2V23H87.7479V15.656C87.7479 14.616 87.4839 13.824 86.9559 13.28C86.4279 12.72 85.7079 12.44 84.7959 12.44C83.8839 12.44 83.1559 12.72 82.6119 13.28C82.0839 13.824 81.8199 14.616 81.8199 15.656V23H78.4599V15.656C78.4599 14.616 78.1959 13.824 77.6679 13.28C77.1399 12.72 76.4199 12.44 75.5079 12.44C74.5799 12.44 73.8439 12.72 73.2999 13.28C72.7719 13.824 72.5079 14.616 72.5079 15.656V23H69.1479V9.704H72.5079V11.312C72.9399 10.752 73.4919 10.312 74.1639 9.992C74.8519 9.672 75.6039 9.512 76.4199 9.512C77.4599 9.512 78.3879 9.736 79.2039 10.184C80.0199 10.616 80.6519 11.24 81.0999 12.056C81.5319 11.288 82.1559 10.672 82.9719 10.208C83.8039 9.744 84.6999 9.512 85.6599 9.512ZM108.816 16.064C108.816 16.544 108.784 16.976 108.72 17.36H99.0003C99.0803 18.32 99.4163 19.072 100.008 19.616C100.6 20.16 101.328 20.432 102.192 20.432C103.44 20.432 104.328 19.896 104.856 18.824H108.48C108.096 20.104 107.36 21.16 106.272 21.992C105.184 22.808 103.848 23.216 102.264 23.216C100.984 23.216 99.8323 22.936 98.8083 22.376C97.8003 21.8 97.0083 20.992 96.4323 19.952C95.8723 18.912 95.5923 17.712 95.5923 16.352C95.5923 14.976 95.8723 13.768 96.4323 12.728C96.9923 11.688 97.7763 10.888 98.7843 10.328C99.7923 9.768 100.952 9.488 102.264 9.488C103.528 9.488 104.656 9.76 105.648 10.304C106.656 10.848 107.432 11.624 107.976 12.632C108.536 13.624 108.816 14.768 108.816 16.064ZM105.336 15.104C105.32 14.24 105.008 13.552 104.4 13.04C103.792 12.512 103.048 12.248 102.168 12.248C101.336 12.248 100.632 12.504 100.056 13.016C99.4963 13.512 99.1523 14.208 99.0243 15.104H105.336Z" fill="#2F3E46"/>
</svg>
