<svg width="26" height="24" viewBox="0 0 26 24" fill="none" xmlns="http://www.w3.org/2000/svg">
<path d="M18.582 15.0943H17.4077L16.9914 14.7238C18.4483 13.1595 19.3253 11.1286 19.3253 8.91938C19.3253 3.99314 14.9994 0 9.66266 0C4.3259 0 0 3.99314 0 8.91938C0 13.8456 4.3259 17.8388 9.66266 17.8388C12.056 17.8388 14.2561 17.0292 15.9508 15.6844L16.3522 16.0686V17.1527L23.785 24L26 21.9554L18.582 15.0943V15.0943ZM9.66266 15.0943C5.96112 15.0943 2.97313 12.3362 2.97313 8.91938C2.97313 5.50257 5.96112 2.74443 9.66266 2.74443C13.3642 2.74443 16.3522 5.50257 16.3522 8.91938C16.3522 12.3362 13.3642 15.0943 9.66266 15.0943Z" fill="#253B3E"/>
</svg>
