<svg width="157" height="34" viewBox="0 0 157 34" fill="none" xmlns="http://www.w3.org/2000/svg">
<rect width="157" height="34" rx="17" fill="#52796F"/>
<path d="M28.0963 18.352C28.0963 16.976 28.3763 15.776 28.9363 14.752C29.4963 13.712 30.2723 12.912 31.2643 12.352C32.2563 11.776 33.3923 11.488 34.6723 11.488C36.3203 11.488 37.6803 11.904 38.7523 12.736C39.8403 13.552 40.5683 14.704 40.9363 16.192H37.3123C37.1203 15.616 36.7923 15.168 36.3283 14.848C35.8803 14.512 35.3203 14.344 34.6483 14.344C33.6883 14.344 32.9283 14.696 32.3683 15.4C31.8083 16.088 31.5283 17.072 31.5283 18.352C31.5283 19.616 31.8083 20.6 32.3683 21.304C32.9283 21.992 33.6883 22.336 34.6483 22.336C36.0083 22.336 36.8963 21.728 37.3123 20.512H40.9363C40.5683 21.952 39.8403 23.096 38.7523 23.944C37.6643 24.792 36.3043 25.216 34.6723 25.216C33.3923 25.216 32.2563 24.936 31.2643 24.376C30.2723 23.8 29.4963 23 28.9363 21.976C28.3763 20.936 28.0963 19.728 28.0963 18.352ZM44.6938 18.304C44.6938 16.96 44.9578 15.768 45.4858 14.728C46.0298 13.688 46.7578 12.888 47.6698 12.328C48.5978 11.768 49.6298 11.488 50.7658 11.488C51.7578 11.488 52.6218 11.688 53.3578 12.088C54.1098 12.488 54.7098 12.992 55.1578 13.6V11.704H58.5418V25H55.1578V23.056C54.7258 23.68 54.1258 24.2 53.3578 24.616C52.6058 25.016 51.7338 25.216 50.7418 25.216C49.6218 25.216 48.5978 24.928 47.6698 24.352C46.7578 23.776 46.0298 22.968 45.4858 21.928C44.9578 20.872 44.6938 19.664 44.6938 18.304ZM55.1578 18.352C55.1578 17.536 54.9978 16.84 54.6778 16.264C54.3578 15.672 53.9258 15.224 53.3818 14.92C52.8378 14.6 52.2538 14.44 51.6298 14.44C51.0058 14.44 50.4298 14.592 49.9018 14.896C49.3738 15.2 48.9418 15.648 48.6058 16.24C48.2858 16.816 48.1258 17.504 48.1258 18.304C48.1258 19.104 48.2858 19.808 48.6058 20.416C48.9418 21.008 49.3738 21.464 49.9018 21.784C50.4458 22.104 51.0218 22.264 51.6298 22.264C52.2538 22.264 52.8378 22.112 53.3818 21.808C53.9258 21.488 54.3578 21.04 54.6778 20.464C54.9978 19.872 55.1578 19.168 55.1578 18.352ZM71.3514 11.512C72.9354 11.512 74.2154 12.016 75.1914 13.024C76.1674 14.016 76.6554 15.408 76.6554 17.2V25H73.2954V17.656C73.2954 16.6 73.0314 15.792 72.5034 15.232C71.9754 14.656 71.2554 14.368 70.3434 14.368C69.4154 14.368 68.6794 14.656 68.1354 15.232C67.6074 15.792 67.3434 16.6 67.3434 17.656V25H63.9834V11.704H67.3434V13.36C67.7914 12.784 68.3594 12.336 69.0474 12.016C69.7514 11.68 70.5194 11.512 71.3514 11.512ZM81.1466 18.352C81.1466 16.976 81.4266 15.776 81.9866 14.752C82.5466 13.712 83.3226 12.912 84.3146 12.352C85.3066 11.776 86.4426 11.488 87.7226 11.488C89.3706 11.488 90.7306 11.904 91.8026 12.736C92.8906 13.552 93.6186 14.704 93.9866 16.192H90.3626C90.1706 15.616 89.8426 15.168 89.3786 14.848C88.9306 14.512 88.3706 14.344 87.6986 14.344C86.7386 14.344 85.9786 14.696 85.4186 15.4C84.8586 16.088 84.5786 17.072 84.5786 18.352C84.5786 19.616 84.8586 20.6 85.4186 21.304C85.9786 21.992 86.7386 22.336 87.6986 22.336C89.0586 22.336 89.9466 21.728 90.3626 20.512H93.9866C93.6186 21.952 92.8906 23.096 91.8026 23.944C90.7146 24.792 89.3546 25.216 87.7226 25.216C86.4426 25.216 85.3066 24.936 84.3146 24.376C83.3226 23.8 82.5466 23 81.9866 21.976C81.4266 20.936 81.1466 19.728 81.1466 18.352ZM110.968 18.064C110.968 18.544 110.936 18.976 110.872 19.36H101.152C101.232 20.32 101.568 21.072 102.16 21.616C102.752 22.16 103.48 22.432 104.344 22.432C105.592 22.432 106.48 21.896 107.008 20.824H110.632C110.248 22.104 109.512 23.16 108.424 23.992C107.336 24.808 106 25.216 104.416 25.216C103.136 25.216 101.984 24.936 100.96 24.376C99.9521 23.8 99.1601 22.992 98.5841 21.952C98.0241 20.912 97.7441 19.712 97.7441 18.352C97.7441 16.976 98.0241 15.768 98.5841 14.728C99.1441 13.688 99.9281 12.888 100.936 12.328C101.944 11.768 103.104 11.488 104.416 11.488C105.68 11.488 106.808 11.76 107.8 12.304C108.808 12.848 109.584 13.624 110.128 14.632C110.688 15.624 110.968 16.768 110.968 18.064ZM107.488 17.104C107.472 16.24 107.16 15.552 106.552 15.04C105.944 14.512 105.2 14.248 104.32 14.248C103.488 14.248 102.784 14.504 102.208 15.016C101.648 15.512 101.304 16.208 101.176 17.104H107.488ZM118.941 7.24V25H115.581V7.24H118.941Z" fill="#CAD2C5"/>
</svg>
