<svg width="157" height="34" viewBox="0 0 157 34" fill="none" xmlns="http://www.w3.org/2000/svg">
<rect width="157" height="34" rx="17" fill="#52796F"/>
<path d="M39.792 19.304C39.792 17.96 40.056 16.768 40.584 15.728C41.128 14.688 41.864 13.888 42.792 13.328C43.72 12.768 44.752 12.488 45.888 12.488C46.752 12.488 47.576 12.68 48.36 13.064C49.144 13.432 49.768 13.928 50.232 14.552V8.24H53.64V26H50.232V24.032C49.816 24.688 49.232 25.216 48.48 25.616C47.728 26.016 46.856 26.216 45.864 26.216C44.744 26.216 43.72 25.928 42.792 25.352C41.864 24.776 41.128 23.968 40.584 22.928C40.056 21.872 39.792 20.664 39.792 19.304ZM50.256 19.352C50.256 18.536 50.096 17.84 49.776 17.264C49.456 16.672 49.024 16.224 48.48 15.92C47.936 15.6 47.352 15.44 46.728 15.44C46.104 15.44 45.528 15.592 45 15.896C44.472 16.2 44.04 16.648 43.704 17.24C43.384 17.816 43.224 18.504 43.224 19.304C43.224 20.104 43.384 20.808 43.704 21.416C44.04 22.008 44.472 22.464 45 22.784C45.544 23.104 46.12 23.264 46.728 23.264C47.352 23.264 47.936 23.112 48.48 22.808C49.024 22.488 49.456 22.04 49.776 21.464C50.096 20.872 50.256 20.168 50.256 19.352ZM71.4416 19.064C71.4416 19.544 71.4096 19.976 71.3456 20.36H61.6256C61.7056 21.32 62.0416 22.072 62.6336 22.616C63.2256 23.16 63.9536 23.432 64.8176 23.432C66.0656 23.432 66.9536 22.896 67.4816 21.824H71.1056C70.7216 23.104 69.9856 24.16 68.8976 24.992C67.8096 25.808 66.4736 26.216 64.8896 26.216C63.6096 26.216 62.4576 25.936 61.4336 25.376C60.4256 24.8 59.6336 23.992 59.0576 22.952C58.4976 21.912 58.2176 20.712 58.2176 19.352C58.2176 17.976 58.4976 16.768 59.0576 15.728C59.6176 14.688 60.4016 13.888 61.4096 13.328C62.4176 12.768 63.5776 12.488 64.8896 12.488C66.1536 12.488 67.2816 12.76 68.2736 13.304C69.2816 13.848 70.0576 14.624 70.6016 15.632C71.1616 16.624 71.4416 17.768 71.4416 19.064ZM67.9616 18.104C67.9456 17.24 67.6336 16.552 67.0256 16.04C66.4176 15.512 65.6736 15.248 64.7936 15.248C63.9616 15.248 63.2576 15.504 62.6816 16.016C62.1216 16.512 61.7776 17.208 61.6496 18.104H67.9616ZM79.4141 8.24V26H76.0541V8.24H79.4141ZM97.2538 19.064C97.2538 19.544 97.2218 19.976 97.1578 20.36H87.4378C87.5178 21.32 87.8538 22.072 88.4458 22.616C89.0378 23.16 89.7658 23.432 90.6298 23.432C91.8778 23.432 92.7658 22.896 93.2938 21.824H96.9178C96.5338 23.104 95.7978 24.16 94.7098 24.992C93.6218 25.808 92.2858 26.216 90.7018 26.216C89.4218 26.216 88.2698 25.936 87.2458 25.376C86.2378 24.8 85.4458 23.992 84.8698 22.952C84.3098 21.912 84.0298 20.712 84.0298 19.352C84.0298 17.976 84.3098 16.768 84.8698 15.728C85.4298 14.688 86.2138 13.888 87.2218 13.328C88.2298 12.768 89.3898 12.488 90.7018 12.488C91.9658 12.488 93.0938 12.76 94.0858 13.304C95.0938 13.848 95.8698 14.624 96.4138 15.632C96.9738 16.624 97.2538 17.768 97.2538 19.064ZM93.7738 18.104C93.7578 17.24 93.4458 16.552 92.8378 16.04C92.2298 15.512 91.4858 15.248 90.6058 15.248C89.7738 15.248 89.0698 15.504 88.4938 16.016C87.9338 16.512 87.5898 17.208 87.4618 18.104H93.7738ZM105.778 15.464V21.896C105.778 22.344 105.882 22.672 106.09 22.88C106.314 23.072 106.682 23.168 107.194 23.168H108.754V26H106.642C103.81 26 102.394 24.624 102.394 21.872V15.464H100.81V12.704H102.394V9.416H105.778V12.704H108.754V15.464H105.778ZM125.691 19.064C125.691 19.544 125.659 19.976 125.595 20.36H115.875C115.955 21.32 116.291 22.072 116.883 22.616C117.475 23.16 118.203 23.432 119.067 23.432C120.315 23.432 121.203 22.896 121.731 21.824H125.355C124.971 23.104 124.235 24.16 123.147 24.992C122.059 25.808 120.723 26.216 119.139 26.216C117.859 26.216 116.707 25.936 115.683 25.376C114.675 24.8 113.883 23.992 113.307 22.952C112.747 21.912 112.467 20.712 112.467 19.352C112.467 17.976 112.747 16.768 113.307 15.728C113.867 14.688 114.651 13.888 115.659 13.328C116.667 12.768 117.827 12.488 119.139 12.488C120.403 12.488 121.531 12.76 122.523 13.304C123.531 13.848 124.307 14.624 124.851 15.632C125.411 16.624 125.691 17.768 125.691 19.064ZM122.211 18.104C122.195 17.24 121.883 16.552 121.275 16.04C120.667 15.512 119.923 15.248 119.043 15.248C118.211 15.248 117.507 15.504 116.931 16.016C116.371 16.512 116.027 17.208 115.899 18.104H122.211Z" fill="#CAD2C5"/>
<path d="M15.4286 24.7778C15.4286 26 16.7143 27 18.2857 27H29.7143C31.2857 27 32.5714 26 32.5714 24.7778V11.4444H24H15.4286V24.7778ZM18.9429 16.8667L20.9571 15.3L24 17.6556L27.0286 15.3L29.0429 16.8667L26.0143 19.2222L29.0429 21.5778L27.0286 23.1444L24 20.7889L20.9714 23.1444L18.9571 21.5778L21.9857 19.2222L18.9429 16.8667ZM29 8.11111L27.5714 7H20.4286L19 8.11111H14V10.3333H34V8.11111H29Z" fill="#CAD2C5"/>
</svg>
