<svg width="157" height="34" viewBox="0 0 157 34" fill="none" xmlns="http://www.w3.org/2000/svg">
<rect width="157" height="34" rx="17" fill="#52796F"/>
<path d="M63.016 18.064C63.016 18.544 62.984 18.976 62.92 19.36H53.2C53.28 20.32 53.616 21.072 54.208 21.616C54.8 22.16 55.528 22.432 56.392 22.432C57.64 22.432 58.528 21.896 59.056 20.824H62.68C62.296 22.104 61.56 23.16 60.472 23.992C59.384 24.808 58.048 25.216 56.464 25.216C55.184 25.216 54.032 24.936 53.008 24.376C52 23.8 51.208 22.992 50.632 21.952C50.072 20.912 49.792 19.712 49.792 18.352C49.792 16.976 50.072 15.768 50.632 14.728C51.192 13.688 51.976 12.888 52.984 12.328C53.992 11.768 55.152 11.488 56.464 11.488C57.728 11.488 58.856 11.76 59.848 12.304C60.856 12.848 61.632 13.624 62.176 14.632C62.736 15.624 63.016 16.768 63.016 18.064ZM59.536 17.104C59.52 16.24 59.208 15.552 58.6 15.04C57.992 14.512 57.248 14.248 56.368 14.248C55.536 14.248 54.832 14.504 54.256 15.016C53.696 15.512 53.352 16.208 53.224 17.104H59.536ZM66.7645 18.304C66.7645 16.96 67.0285 15.768 67.5565 14.728C68.1005 13.688 68.8365 12.888 69.7645 12.328C70.6925 11.768 71.7245 11.488 72.8605 11.488C73.7245 11.488 74.5485 11.68 75.3325 12.064C76.1165 12.432 76.7405 12.928 77.2045 13.552V7.24H80.6125V25H77.2045V23.032C76.7885 23.688 76.2045 24.216 75.4525 24.616C74.7005 25.016 73.8285 25.216 72.8365 25.216C71.7165 25.216 70.6925 24.928 69.7645 24.352C68.8365 23.776 68.1005 22.968 67.5565 21.928C67.0285 20.872 66.7645 19.664 66.7645 18.304ZM77.2285 18.352C77.2285 17.536 77.0685 16.84 76.7485 16.264C76.4285 15.672 75.9965 15.224 75.4525 14.92C74.9085 14.6 74.3245 14.44 73.7005 14.44C73.0765 14.44 72.5005 14.592 71.9725 14.896C71.4445 15.2 71.0125 15.648 70.6765 16.24C70.3565 16.816 70.1965 17.504 70.1965 18.304C70.1965 19.104 70.3565 19.808 70.6765 20.416C71.0125 21.008 71.4445 21.464 71.9725 21.784C72.5165 22.104 73.0925 22.264 73.7005 22.264C74.3245 22.264 74.9085 22.112 75.4525 21.808C75.9965 21.488 76.4285 21.04 76.7485 20.464C77.0685 19.872 77.2285 19.168 77.2285 18.352ZM87.7581 10.12C87.1661 10.12 86.6701 9.936 86.2701 9.568C85.8861 9.184 85.6941 8.712 85.6941 8.152C85.6941 7.592 85.8861 7.128 86.2701 6.76C86.6701 6.376 87.1661 6.184 87.7581 6.184C88.3501 6.184 88.8381 6.376 89.2221 6.76C89.6221 7.128 89.8221 7.592 89.8221 8.152C89.8221 8.712 89.6221 9.184 89.2221 9.568C88.8381 9.936 88.3501 10.12 87.7581 10.12ZM89.4141 11.704V25H86.0541V11.704H89.4141ZM98.8058 14.464V20.896C98.8058 21.344 98.9098 21.672 99.1178 21.88C99.3418 22.072 99.7098 22.168 100.222 22.168H101.782V25H99.6698C96.8378 25 95.4218 23.624 95.4218 20.872V14.464H93.8378V11.704H95.4218V8.416H98.8058V11.704H101.782V14.464H98.8058Z" fill="#CAD2C5"/>
<path d="M21 21.2525V25.0025H24.75L35.81 13.9425L32.06 10.1925L21 21.2525ZM38.71 11.0425C39.1 10.6525 39.1 10.0225 38.71 9.6325L36.37 7.2925C35.98 6.9025 35.35 6.9025 34.96 7.2925L33.13 9.1225L36.88 12.8725L38.71 11.0425V11.0425Z" fill="#CAD2C5"/>
</svg>
