<svg width="161" height="34" viewBox="0 0 161 34" fill="none" xmlns="http://www.w3.org/2000/svg">
<rect width="161" height="34" rx="17" fill="#52796F"/>
<path d="M49.016 8.24V26H45.656V8.24H49.016ZM60.3997 26.216C59.1197 26.216 57.9677 25.936 56.9437 25.376C55.9197 24.8 55.1117 23.992 54.5197 22.952C53.9437 21.912 53.6557 20.712 53.6557 19.352C53.6557 17.992 53.9517 16.792 54.5437 15.752C55.1517 14.712 55.9757 13.912 57.0157 13.352C58.0557 12.776 59.2157 12.488 60.4957 12.488C61.7757 12.488 62.9357 12.776 63.9757 13.352C65.0157 13.912 65.8317 14.712 66.4237 15.752C67.0317 16.792 67.3357 17.992 67.3357 19.352C67.3357 20.712 67.0237 21.912 66.3997 22.952C65.7917 23.992 64.9597 24.8 63.9037 25.376C62.8637 25.936 61.6957 26.216 60.3997 26.216ZM60.3997 23.288C61.0077 23.288 61.5757 23.144 62.1037 22.856C62.6477 22.552 63.0797 22.104 63.3997 21.512C63.7197 20.92 63.8797 20.2 63.8797 19.352C63.8797 18.088 63.5437 17.12 62.8717 16.448C62.2157 15.76 61.4077 15.416 60.4477 15.416C59.4877 15.416 58.6797 15.76 58.0237 16.448C57.3837 17.12 57.0637 18.088 57.0637 19.352C57.0637 20.616 57.3757 21.592 57.9997 22.28C58.6397 22.952 59.4397 23.288 60.3997 23.288ZM77.1684 12.488C78.1604 12.488 79.0324 12.688 79.7844 13.088C80.5364 13.472 81.1284 13.976 81.5604 14.6V12.704H84.9444V26.096C84.9444 27.328 84.6964 28.424 84.2004 29.384C83.7044 30.36 82.9604 31.128 81.9684 31.688C80.9764 32.264 79.7764 32.552 78.3684 32.552C76.4804 32.552 74.9284 32.112 73.7124 31.232C72.5124 30.352 71.8324 29.152 71.6724 27.632H75.0084C75.1844 28.24 75.5604 28.72 76.1364 29.072C76.7284 29.44 77.4404 29.624 78.2724 29.624C79.2484 29.624 80.0404 29.328 80.6484 28.736C81.2564 28.16 81.5604 27.28 81.5604 26.096V24.032C81.1284 24.656 80.5284 25.176 79.7604 25.592C79.0084 26.008 78.1444 26.216 77.1684 26.216C76.0484 26.216 75.0244 25.928 74.0964 25.352C73.1684 24.776 72.4324 23.968 71.8884 22.928C71.3604 21.872 71.0964 20.664 71.0964 19.304C71.0964 17.96 71.3604 16.768 71.8884 15.728C72.4324 14.688 73.1604 13.888 74.0724 13.328C75.0004 12.768 76.0324 12.488 77.1684 12.488ZM81.5604 19.352C81.5604 18.536 81.4004 17.84 81.0804 17.264C80.7604 16.672 80.3284 16.224 79.7844 15.92C79.2404 15.6 78.6564 15.44 78.0324 15.44C77.4084 15.44 76.8324 15.592 76.3044 15.896C75.7764 16.2 75.3444 16.648 75.0084 17.24C74.6884 17.816 74.5284 18.504 74.5284 19.304C74.5284 20.104 74.6884 20.808 75.0084 21.416C75.3444 22.008 75.7764 22.464 76.3044 22.784C76.8484 23.104 77.4244 23.264 78.0324 23.264C78.6564 23.264 79.2404 23.112 79.7844 22.808C80.3284 22.488 80.7604 22.04 81.0804 21.464C81.4004 20.872 81.5604 20.168 81.5604 19.352ZM92.09 11.12C91.498 11.12 91.002 10.936 90.602 10.568C90.218 10.184 90.026 9.712 90.026 9.152C90.026 8.592 90.218 8.128 90.602 7.76C91.002 7.376 91.498 7.184 92.09 7.184C92.682 7.184 93.17 7.376 93.554 7.76C93.954 8.128 94.154 8.592 94.154 9.152C94.154 9.712 93.954 10.184 93.554 10.568C93.17 10.936 92.682 11.12 92.09 11.12ZM93.746 12.704V26H90.386V12.704H93.746ZM106.594 12.512C108.178 12.512 109.458 13.016 110.434 14.024C111.41 15.016 111.898 16.408 111.898 18.2V26H108.538V18.656C108.538 17.6 108.274 16.792 107.746 16.232C107.218 15.656 106.498 15.368 105.586 15.368C104.658 15.368 103.922 15.656 103.378 16.232C102.85 16.792 102.586 17.6 102.586 18.656V26H99.2257V12.704H102.586V14.36C103.034 13.784 103.602 13.336 104.29 13.016C104.994 12.68 105.762 12.512 106.594 12.512Z" fill="#CAD2C5"/>
</svg>
