<svg width="143" height="31" viewBox="0 0 143 31" fill="none" xmlns="http://www.w3.org/2000/svg">
<rect width="143" height="30" rx="15" fill="#CAD2C5"/>
<path d="M42.016 6.24V24H38.656V6.24H42.016ZM53.3997 24.216C52.1197 24.216 50.9677 23.936 49.9437 23.376C48.9197 22.8 48.1117 21.992 47.5197 20.952C46.9437 19.912 46.6557 18.712 46.6557 17.352C46.6557 15.992 46.9517 14.792 47.5437 13.752C48.1517 12.712 48.9757 11.912 50.0157 11.352C51.0557 10.776 52.2157 10.488 53.4957 10.488C54.7757 10.488 55.9357 10.776 56.9757 11.352C58.0157 11.912 58.8317 12.712 59.4237 13.752C60.0317 14.792 60.3357 15.992 60.3357 17.352C60.3357 18.712 60.0237 19.912 59.3997 20.952C58.7917 21.992 57.9597 22.8 56.9037 23.376C55.8637 23.936 54.6957 24.216 53.3997 24.216ZM53.3997 21.288C54.0077 21.288 54.5757 21.144 55.1037 20.856C55.6477 20.552 56.0797 20.104 56.3997 19.512C56.7197 18.92 56.8797 18.2 56.8797 17.352C56.8797 16.088 56.5437 15.12 55.8717 14.448C55.2157 13.76 54.4077 13.416 53.4477 13.416C52.4877 13.416 51.6797 13.76 51.0237 14.448C50.3837 15.12 50.0637 16.088 50.0637 17.352C50.0637 18.616 50.3757 19.592 50.9997 20.28C51.6397 20.952 52.4397 21.288 53.3997 21.288ZM70.1684 10.488C71.1604 10.488 72.0324 10.688 72.7844 11.088C73.5364 11.472 74.1284 11.976 74.5604 12.6V10.704H77.9444V24.096C77.9444 25.328 77.6964 26.424 77.2004 27.384C76.7044 28.36 75.9604 29.128 74.9684 29.688C73.9764 30.264 72.7764 30.552 71.3684 30.552C69.4804 30.552 67.9284 30.112 66.7124 29.232C65.5124 28.352 64.8324 27.152 64.6724 25.632H68.0084C68.1844 26.24 68.5604 26.72 69.1364 27.072C69.7284 27.44 70.4404 27.624 71.2724 27.624C72.2484 27.624 73.0404 27.328 73.6484 26.736C74.2564 26.16 74.5604 25.28 74.5604 24.096V22.032C74.1284 22.656 73.5284 23.176 72.7604 23.592C72.0084 24.008 71.1444 24.216 70.1684 24.216C69.0484 24.216 68.0244 23.928 67.0964 23.352C66.1684 22.776 65.4324 21.968 64.8884 20.928C64.3604 19.872 64.0964 18.664 64.0964 17.304C64.0964 15.96 64.3604 14.768 64.8884 13.728C65.4324 12.688 66.1604 11.888 67.0724 11.328C68.0004 10.768 69.0324 10.488 70.1684 10.488ZM74.5604 17.352C74.5604 16.536 74.4004 15.84 74.0804 15.264C73.7604 14.672 73.3284 14.224 72.7844 13.92C72.2404 13.6 71.6564 13.44 71.0324 13.44C70.4084 13.44 69.8324 13.592 69.3044 13.896C68.7764 14.2 68.3444 14.648 68.0084 15.24C67.6884 15.816 67.5284 16.504 67.5284 17.304C67.5284 18.104 67.6884 18.808 68.0084 19.416C68.3444 20.008 68.7764 20.464 69.3044 20.784C69.8484 21.104 70.4244 21.264 71.0324 21.264C71.6564 21.264 72.2404 21.112 72.7844 20.808C73.3284 20.488 73.7604 20.04 74.0804 19.464C74.4004 18.872 74.5604 18.168 74.5604 17.352ZM85.09 9.12C84.498 9.12 84.002 8.936 83.602 8.568C83.218 8.184 83.026 7.712 83.026 7.152C83.026 6.592 83.218 6.128 83.602 5.76C84.002 5.376 84.498 5.184 85.09 5.184C85.682 5.184 86.17 5.376 86.554 5.76C86.954 6.128 87.154 6.592 87.154 7.152C87.154 7.712 86.954 8.184 86.554 8.568C86.17 8.936 85.682 9.12 85.09 9.12ZM86.746 10.704V24H83.386V10.704H86.746ZM99.5937 10.512C101.178 10.512 102.458 11.016 103.434 12.024C104.41 13.016 104.898 14.408 104.898 16.2V24H101.538V16.656C101.538 15.6 101.274 14.792 100.746 14.232C100.218 13.656 99.4977 13.368 98.5857 13.368C97.6577 13.368 96.9217 13.656 96.3777 14.232C95.8497 14.792 95.5857 15.6 95.5857 16.656V24H92.2257V10.704H95.5857V12.36C96.0337 11.784 96.6017 11.336 97.2897 11.016C97.9937 10.68 98.7617 10.512 99.5937 10.512Z" fill="#2F3E46"/>
</svg>
