<svg width="161" height="34" viewBox="0 0 161 34" fill="none" xmlns="http://www.w3.org/2000/svg">
<rect width="161" height="34" rx="17" fill="#52796F"/>
<path d="M40.016 22.336H45.536V25H36.656V8.248H40.016V22.336ZM55.7356 25.216C54.4556 25.216 53.3036 24.936 52.2796 24.376C51.2556 23.8 50.4476 22.992 49.8556 21.952C49.2796 20.912 48.9916 19.712 48.9916 18.352C48.9916 16.992 49.2876 15.792 49.8796 14.752C50.4876 13.712 51.3116 12.912 52.3516 12.352C53.3916 11.776 54.5516 11.488 55.8316 11.488C57.1116 11.488 58.2716 11.776 59.3116 12.352C60.3516 12.912 61.1676 13.712 61.7596 14.752C62.3676 15.792 62.6716 16.992 62.6716 18.352C62.6716 19.712 62.3596 20.912 61.7356 21.952C61.1276 22.992 60.2956 23.8 59.2396 24.376C58.1996 24.936 57.0316 25.216 55.7356 25.216ZM55.7356 22.288C56.3436 22.288 56.9116 22.144 57.4396 21.856C57.9836 21.552 58.4156 21.104 58.7356 20.512C59.0556 19.92 59.2156 19.2 59.2156 18.352C59.2156 17.088 58.8796 16.12 58.2076 15.448C57.5516 14.76 56.7436 14.416 55.7836 14.416C54.8236 14.416 54.0156 14.76 53.3596 15.448C52.7196 16.12 52.3996 17.088 52.3996 18.352C52.3996 19.616 52.7116 20.592 53.3356 21.28C53.9756 21.952 54.7756 22.288 55.7356 22.288ZM72.5043 11.488C73.4963 11.488 74.3683 11.688 75.1203 12.088C75.8723 12.472 76.4643 12.976 76.8963 13.6V11.704H80.2803V25.096C80.2803 26.328 80.0323 27.424 79.5363 28.384C79.0403 29.36 78.2963 30.128 77.3043 30.688C76.3123 31.264 75.1123 31.552 73.7043 31.552C71.8163 31.552 70.2643 31.112 69.0483 30.232C67.8483 29.352 67.1683 28.152 67.0083 26.632H70.3443C70.5203 27.24 70.8963 27.72 71.4723 28.072C72.0643 28.44 72.7763 28.624 73.6083 28.624C74.5843 28.624 75.3763 28.328 75.9843 27.736C76.5923 27.16 76.8963 26.28 76.8963 25.096V23.032C76.4643 23.656 75.8643 24.176 75.0963 24.592C74.3443 25.008 73.4803 25.216 72.5043 25.216C71.3843 25.216 70.3603 24.928 69.4323 24.352C68.5043 23.776 67.7683 22.968 67.2243 21.928C66.6963 20.872 66.4323 19.664 66.4323 18.304C66.4323 16.96 66.6963 15.768 67.2243 14.728C67.7683 13.688 68.4963 12.888 69.4083 12.328C70.3363 11.768 71.3683 11.488 72.5043 11.488ZM76.8963 18.352C76.8963 17.536 76.7363 16.84 76.4163 16.264C76.0963 15.672 75.6643 15.224 75.1203 14.92C74.5763 14.6 73.9923 14.44 73.3683 14.44C72.7443 14.44 72.1683 14.592 71.6403 14.896C71.1123 15.2 70.6803 15.648 70.3443 16.24C70.0243 16.816 69.8643 17.504 69.8643 18.304C69.8643 19.104 70.0243 19.808 70.3443 20.416C70.6803 21.008 71.1123 21.464 71.6403 21.784C72.1843 22.104 72.7603 22.264 73.3683 22.264C73.9923 22.264 74.5763 22.112 75.1203 21.808C75.6643 21.488 76.0963 21.04 76.4163 20.464C76.7363 19.872 76.8963 19.168 76.8963 18.352ZM91.6259 25.216C90.3459 25.216 89.1939 24.936 88.1699 24.376C87.1459 23.8 86.3379 22.992 85.7459 21.952C85.1699 20.912 84.8819 19.712 84.8819 18.352C84.8819 16.992 85.1779 15.792 85.7699 14.752C86.3779 13.712 87.2019 12.912 88.2419 12.352C89.2819 11.776 90.4419 11.488 91.7219 11.488C93.0019 11.488 94.1619 11.776 95.2019 12.352C96.2419 12.912 97.0579 13.712 97.6499 14.752C98.2579 15.792 98.5619 16.992 98.5619 18.352C98.5619 19.712 98.2499 20.912 97.6259 21.952C97.0179 22.992 96.1859 23.8 95.1299 24.376C94.0899 24.936 92.9219 25.216 91.6259 25.216ZM91.6259 22.288C92.2339 22.288 92.8019 22.144 93.3299 21.856C93.8739 21.552 94.3059 21.104 94.6259 20.512C94.9459 19.92 95.1059 19.2 95.1059 18.352C95.1059 17.088 94.7699 16.12 94.0979 15.448C93.4419 14.76 92.6339 14.416 91.6739 14.416C90.7139 14.416 89.9059 14.76 89.2499 15.448C88.6099 16.12 88.2899 17.088 88.2899 18.352C88.2899 19.616 88.6019 20.592 89.2259 21.28C89.8659 21.952 90.6659 22.288 91.6259 22.288ZM115.739 11.704V25H112.355V23.32C111.923 23.896 111.355 24.352 110.651 24.688C109.963 25.008 109.211 25.168 108.395 25.168C107.355 25.168 106.435 24.952 105.635 24.52C104.835 24.072 104.203 23.424 103.739 22.576C103.291 21.712 103.067 20.688 103.067 19.504V11.704H106.427V19.024C106.427 20.08 106.691 20.896 107.219 21.472C107.747 22.032 108.467 22.312 109.379 22.312C110.307 22.312 111.035 22.032 111.563 21.472C112.091 20.896 112.355 20.08 112.355 19.024V11.704H115.739ZM125.126 14.464V20.896C125.126 21.344 125.23 21.672 125.438 21.88C125.662 22.072 126.03 22.168 126.542 22.168H128.102V25H125.99C123.158 25 121.742 23.624 121.742 20.872V14.464H120.158V11.704H121.742V8.416H125.126V11.704H128.102V14.464H125.126Z" fill="#CAD2C5"/>
<path d="M24.688 26L21.064 20.36L17.776 26H13.984L19.264 17.552L13.912 9.248H17.776L21.4 14.864L24.664 9.248H28.456L23.2 17.672L28.552 26H24.688Z" fill="#CAD2C5"/>
</svg>
