<svg width="143" height="30" viewBox="0 0 143 30" fill="none" xmlns="http://www.w3.org/2000/svg">
<rect width="143" height="30" rx="15" fill="#CAD2C5"/>
<path d="M31.016 5.24V23H27.656V5.24H31.016ZM42.3997 23.216C41.1197 23.216 39.9677 22.936 38.9437 22.376C37.9197 21.8 37.1117 20.992 36.5197 19.952C35.9437 18.912 35.6557 17.712 35.6557 16.352C35.6557 14.992 35.9517 13.792 36.5437 12.752C37.1517 11.712 37.9757 10.912 39.0157 10.352C40.0557 9.776 41.2157 9.488 42.4957 9.488C43.7757 9.488 44.9357 9.776 45.9757 10.352C47.0157 10.912 47.8317 11.712 48.4237 12.752C49.0317 13.792 49.3357 14.992 49.3357 16.352C49.3357 17.712 49.0237 18.912 48.3997 19.952C47.7917 20.992 46.9597 21.8 45.9037 22.376C44.8637 22.936 43.6957 23.216 42.3997 23.216ZM42.3997 20.288C43.0077 20.288 43.5757 20.144 44.1037 19.856C44.6477 19.552 45.0797 19.104 45.3997 18.512C45.7197 17.92 45.8797 17.2 45.8797 16.352C45.8797 15.088 45.5437 14.12 44.8717 13.448C44.2157 12.76 43.4077 12.416 42.4477 12.416C41.4877 12.416 40.6797 12.76 40.0237 13.448C39.3837 14.12 39.0637 15.088 39.0637 16.352C39.0637 17.616 39.3757 18.592 39.9997 19.28C40.6397 19.952 41.4397 20.288 42.3997 20.288ZM59.1684 9.488C60.1604 9.488 61.0324 9.688 61.7844 10.088C62.5364 10.472 63.1284 10.976 63.5604 11.6V9.704H66.9444V23.096C66.9444 24.328 66.6964 25.424 66.2004 26.384C65.7044 27.36 64.9604 28.128 63.9684 28.688C62.9764 29.264 61.7764 29.552 60.3684 29.552C58.4804 29.552 56.9284 29.112 55.7124 28.232C54.5124 27.352 53.8324 26.152 53.6724 24.632H57.0084C57.1844 25.24 57.5604 25.72 58.1364 26.072C58.7284 26.44 59.4404 26.624 60.2724 26.624C61.2484 26.624 62.0404 26.328 62.6484 25.736C63.2564 25.16 63.5604 24.28 63.5604 23.096V21.032C63.1284 21.656 62.5284 22.176 61.7604 22.592C61.0084 23.008 60.1444 23.216 59.1684 23.216C58.0484 23.216 57.0244 22.928 56.0964 22.352C55.1684 21.776 54.4324 20.968 53.8884 19.928C53.3604 18.872 53.0964 17.664 53.0964 16.304C53.0964 14.96 53.3604 13.768 53.8884 12.728C54.4324 11.688 55.1604 10.888 56.0724 10.328C57.0004 9.768 58.0324 9.488 59.1684 9.488ZM63.5604 16.352C63.5604 15.536 63.4004 14.84 63.0804 14.264C62.7604 13.672 62.3284 13.224 61.7844 12.92C61.2404 12.6 60.6564 12.44 60.0324 12.44C59.4084 12.44 58.8324 12.592 58.3044 12.896C57.7764 13.2 57.3444 13.648 57.0084 14.24C56.6884 14.816 56.5284 15.504 56.5284 16.304C56.5284 17.104 56.6884 17.808 57.0084 18.416C57.3444 19.008 57.7764 19.464 58.3044 19.784C58.8484 20.104 59.4244 20.264 60.0324 20.264C60.6564 20.264 61.2404 20.112 61.7844 19.808C62.3284 19.488 62.7604 19.04 63.0804 18.464C63.4004 17.872 63.5604 17.168 63.5604 16.352ZM78.29 23.216C77.01 23.216 75.858 22.936 74.834 22.376C73.81 21.8 73.002 20.992 72.41 19.952C71.834 18.912 71.546 17.712 71.546 16.352C71.546 14.992 71.842 13.792 72.434 12.752C73.042 11.712 73.866 10.912 74.906 10.352C75.946 9.776 77.106 9.488 78.386 9.488C79.666 9.488 80.826 9.776 81.866 10.352C82.906 10.912 83.722 11.712 84.314 12.752C84.922 13.792 85.226 14.992 85.226 16.352C85.226 17.712 84.914 18.912 84.29 19.952C83.682 20.992 82.85 21.8 81.794 22.376C80.754 22.936 79.586 23.216 78.29 23.216ZM78.29 20.288C78.898 20.288 79.466 20.144 79.994 19.856C80.538 19.552 80.97 19.104 81.29 18.512C81.61 17.92 81.77 17.2 81.77 16.352C81.77 15.088 81.434 14.12 80.762 13.448C80.106 12.76 79.298 12.416 78.338 12.416C77.378 12.416 76.57 12.76 75.914 13.448C75.274 14.12 74.954 15.088 74.954 16.352C74.954 17.616 75.266 18.592 75.89 19.28C76.53 19.952 77.33 20.288 78.29 20.288ZM102.403 9.704V23H99.0187V21.32C98.5867 21.896 98.0187 22.352 97.3147 22.688C96.6267 23.008 95.8747 23.168 95.0587 23.168C94.0187 23.168 93.0987 22.952 92.2987 22.52C91.4987 22.072 90.8667 21.424 90.4027 20.576C89.9547 19.712 89.7307 18.688 89.7307 17.504V9.704H93.0907V17.024C93.0907 18.08 93.3547 18.896 93.8827 19.472C94.4107 20.032 95.1307 20.312 96.0427 20.312C96.9707 20.312 97.6987 20.032 98.2267 19.472C98.7547 18.896 99.0187 18.08 99.0187 17.024V9.704H102.403ZM111.79 12.464V18.896C111.79 19.344 111.894 19.672 112.102 19.88C112.326 20.072 112.694 20.168 113.206 20.168H114.766V23H112.654C109.822 23 108.406 21.624 108.406 18.872V12.464H106.822V9.704H108.406V6.416H111.79V9.704H114.766V12.464H111.79Z" fill="#2F3E46"/>
</svg>
