<svg width="157" height="34" viewBox="0 0 157 34" fill="none" xmlns="http://www.w3.org/2000/svg">
<rect width="157" height="34" rx="17" fill="#52796F"/>
<path d="M64.984 24H61.624L54.016 12.504V24H50.656V7.224H54.016L61.624 18.744V7.224H64.984V24ZM82.8244 17.064C82.8244 17.544 82.7924 17.976 82.7284 18.36H73.0084C73.0884 19.32 73.4244 20.072 74.0164 20.616C74.6084 21.16 75.3364 21.432 76.2004 21.432C77.4484 21.432 78.3364 20.896 78.8644 19.824H82.4884C82.1044 21.104 81.3684 22.16 80.2804 22.992C79.1924 23.808 77.8564 24.216 76.2724 24.216C74.9924 24.216 73.8404 23.936 72.8164 23.376C71.8084 22.8 71.0164 21.992 70.4404 20.952C69.8804 19.912 69.6004 18.712 69.6004 17.352C69.6004 15.976 69.8804 14.768 70.4404 13.728C71.0004 12.688 71.7844 11.888 72.7924 11.328C73.8004 10.768 74.9604 10.488 76.2724 10.488C77.5364 10.488 78.6644 10.76 79.6564 11.304C80.6644 11.848 81.4404 12.624 81.9844 13.632C82.5444 14.624 82.8244 15.768 82.8244 17.064ZM79.3444 16.104C79.3284 15.24 79.0164 14.552 78.4084 14.04C77.8004 13.512 77.0564 13.248 76.1764 13.248C75.3444 13.248 74.6404 13.504 74.0644 14.016C73.5044 14.512 73.1604 15.208 73.0324 16.104H79.3444ZM105.869 10.704L101.981 24H98.3569L95.9329 14.712L93.5089 24H89.8609L85.9489 10.704H89.3569L91.7089 20.832L94.2529 10.704H97.8049L100.301 20.808L102.653 10.704H105.869Z" fill="#CAD2C5"/>
<path d="M20 20.2525V24.0025H23.75L34.81 12.9425L31.06 9.1925L20 20.2525ZM37.71 10.0425C38.1 9.6525 38.1 9.0225 37.71 8.6325L35.37 6.2925C34.98 5.9025 34.35 5.9025 33.96 6.2925L32.13 8.1225L35.88 11.8725L37.71 10.0425Z" fill="#CAD2C5"/>
</svg>
