<svg width="164" height="34" viewBox="0 0 164 34" fill="none" xmlns="http://www.w3.org/2000/svg">
<rect width="161" height="34" rx="17" fill="#52796F"/>
<path d="M61.872 14.432C61.872 15.328 61.656 16.168 61.224 16.952C60.808 17.736 60.144 18.368 59.232 18.848C58.336 19.328 57.2 19.568 55.824 19.568H53.016V26H49.656V9.248H55.824C57.12 9.248 58.224 9.472 59.136 9.92C60.048 10.368 60.728 10.984 61.176 11.768C61.64 12.552 61.872 13.44 61.872 14.432ZM55.68 16.856C56.608 16.856 57.296 16.648 57.744 16.232C58.192 15.8 58.416 15.2 58.416 14.432C58.416 12.8 57.504 11.984 55.68 11.984H53.016V16.856H55.68ZM72.3216 26.216C71.0416 26.216 69.8896 25.936 68.8656 25.376C67.8416 24.8 67.0336 23.992 66.4416 22.952C65.8656 21.912 65.5776 20.712 65.5776 19.352C65.5776 17.992 65.8736 16.792 66.4656 15.752C67.0736 14.712 67.8976 13.912 68.9376 13.352C69.9776 12.776 71.1376 12.488 72.4176 12.488C73.6976 12.488 74.8576 12.776 75.8976 13.352C76.9376 13.912 77.7536 14.712 78.3456 15.752C78.9536 16.792 79.2576 17.992 79.2576 19.352C79.2576 20.712 78.9456 21.912 78.3216 22.952C77.7136 23.992 76.8816 24.8 75.8256 25.376C74.7856 25.936 73.6176 26.216 72.3216 26.216ZM72.3216 23.288C72.9296 23.288 73.4976 23.144 74.0256 22.856C74.5696 22.552 75.0016 22.104 75.3216 21.512C75.6416 20.92 75.8016 20.2 75.8016 19.352C75.8016 18.088 75.4656 17.12 74.7936 16.448C74.1376 15.76 73.3296 15.416 72.3696 15.416C71.4096 15.416 70.6016 15.76 69.9456 16.448C69.3056 17.12 68.9856 18.088 68.9856 19.352C68.9856 20.616 69.2976 21.592 69.9216 22.28C70.5616 22.952 71.3616 23.288 72.3216 23.288ZM88.9703 26.216C87.8823 26.216 86.9062 26.024 86.0422 25.64C85.1782 25.24 84.4902 24.704 83.9782 24.032C83.4822 23.36 83.2102 22.616 83.1622 21.8H86.5462C86.6102 22.312 86.8583 22.736 87.2902 23.072C87.7382 23.408 88.2902 23.576 88.9462 23.576C89.5863 23.576 90.0823 23.448 90.4342 23.192C90.8022 22.936 90.9862 22.608 90.9862 22.208C90.9862 21.776 90.7622 21.456 90.3142 21.248C89.8822 21.024 89.1862 20.784 88.2262 20.528C87.2342 20.288 86.4182 20.04 85.7782 19.784C85.1542 19.528 84.6102 19.136 84.1462 18.608C83.6982 18.08 83.4742 17.368 83.4742 16.472C83.4742 15.736 83.6822 15.064 84.0982 14.456C84.5302 13.848 85.1382 13.368 85.9223 13.016C86.7222 12.664 87.6583 12.488 88.7303 12.488C90.3142 12.488 91.5782 12.888 92.5223 13.688C93.4663 14.472 93.9863 15.536 94.0823 16.88H90.8663C90.8183 16.352 90.5943 15.936 90.1943 15.632C89.8103 15.312 89.2903 15.152 88.6343 15.152C88.0263 15.152 87.5543 15.264 87.2182 15.488C86.8982 15.712 86.7382 16.024 86.7382 16.424C86.7382 16.872 86.9622 17.216 87.4102 17.456C87.8583 17.68 88.5543 17.912 89.4982 18.152C90.4582 18.392 91.2502 18.64 91.8742 18.896C92.4983 19.152 93.0343 19.552 93.4822 20.096C93.9463 20.624 94.1863 21.328 94.2023 22.208C94.2023 22.976 93.9863 23.664 93.5543 24.272C93.1383 24.88 92.5303 25.36 91.7303 25.712C90.9462 26.048 90.0262 26.216 88.9703 26.216ZM103.032 15.464V21.896C103.032 22.344 103.136 22.672 103.344 22.88C103.568 23.072 103.936 23.168 104.448 23.168H106.008V26H103.896C101.064 26 99.6484 24.624 99.6484 21.872V15.464H98.0644V12.704H99.6484V9.416H103.032V12.704H106.008V15.464H103.032Z" fill="#CAD2C5"/>
</svg>
