<svg width="161" height="34" viewBox="0 0 161 34" fill="none" xmlns="http://www.w3.org/2000/svg">
<rect width="161" height="34" rx="17" fill="#52796F"/>
<path d="M24.016 14.768C24.448 14.064 25.008 13.512 25.696 13.112C26.4 12.712 27.2 12.512 28.096 12.512V16.04H27.208C26.152 16.04 25.352 16.288 24.808 16.784C24.28 17.28 24.016 18.144 24.016 19.376V26H20.656V12.704H24.016V14.768ZM44.8791 19.064C44.8791 19.544 44.8471 19.976 44.7831 20.36H35.0631C35.1431 21.32 35.4791 22.072 36.0711 22.616C36.6631 23.16 37.3911 23.432 38.2551 23.432C39.5031 23.432 40.3911 22.896 40.9191 21.824H44.5431C44.1591 23.104 43.4231 24.16 42.3351 24.992C41.2471 25.808 39.9111 26.216 38.3271 26.216C37.0471 26.216 35.8951 25.936 34.8711 25.376C33.8631 24.8 33.0711 23.992 32.4951 22.952C31.9351 21.912 31.6551 20.712 31.6551 19.352C31.6551 17.976 31.9351 16.768 32.4951 15.728C33.0551 14.688 33.8391 13.888 34.8471 13.328C35.8551 12.768 37.0151 12.488 38.3271 12.488C39.5911 12.488 40.7191 12.76 41.7111 13.304C42.7191 13.848 43.4951 14.624 44.0391 15.632C44.5991 16.624 44.8791 17.768 44.8791 19.064ZM41.3991 18.104C41.3831 17.24 41.0711 16.552 40.4631 16.04C39.8551 15.512 39.1111 15.248 38.2311 15.248C37.3991 15.248 36.6951 15.504 36.1191 16.016C35.5591 16.512 35.2151 17.208 35.0871 18.104H41.3991ZM54.6996 12.488C55.6916 12.488 56.5636 12.688 57.3156 13.088C58.0676 13.472 58.6596 13.976 59.0916 14.6V12.704H62.4756V26.096C62.4756 27.328 62.2276 28.424 61.7316 29.384C61.2356 30.36 60.4916 31.128 59.4996 31.688C58.5076 32.264 57.3076 32.552 55.8996 32.552C54.0116 32.552 52.4596 32.112 51.2436 31.232C50.0436 30.352 49.3636 29.152 49.2036 27.632H52.5396C52.7156 28.24 53.0916 28.72 53.6676 29.072C54.2596 29.44 54.9716 29.624 55.8036 29.624C56.7796 29.624 57.5716 29.328 58.1796 28.736C58.7876 28.16 59.0916 27.28 59.0916 26.096V24.032C58.6596 24.656 58.0596 25.176 57.2916 25.592C56.5396 26.008 55.6756 26.216 54.6996 26.216C53.5796 26.216 52.5556 25.928 51.6276 25.352C50.6996 24.776 49.9636 23.968 49.4196 22.928C48.8916 21.872 48.6276 20.664 48.6276 19.304C48.6276 17.96 48.8916 16.768 49.4196 15.728C49.9636 14.688 50.6916 13.888 51.6036 13.328C52.5316 12.768 53.5636 12.488 54.6996 12.488ZM59.0916 19.352C59.0916 18.536 58.9316 17.84 58.6116 17.264C58.2916 16.672 57.8596 16.224 57.3156 15.92C56.7716 15.6 56.1876 15.44 55.5636 15.44C54.9396 15.44 54.3636 15.592 53.8356 15.896C53.3076 16.2 52.8756 16.648 52.5396 17.24C52.2196 17.816 52.0596 18.504 52.0596 19.304C52.0596 20.104 52.2196 20.808 52.5396 21.416C52.8756 22.008 53.3076 22.464 53.8356 22.784C54.3796 23.104 54.9556 23.264 55.5636 23.264C56.1876 23.264 56.7716 23.112 57.3156 22.808C57.8596 22.488 58.2916 22.04 58.6116 21.464C58.9316 20.872 59.0916 20.168 59.0916 19.352ZM69.6212 11.12C69.0292 11.12 68.5332 10.936 68.1332 10.568C67.7492 10.184 67.5572 9.712 67.5572 9.152C67.5572 8.592 67.7492 8.128 68.1332 7.76C68.5332 7.376 69.0292 7.184 69.6212 7.184C70.2132 7.184 70.7012 7.376 71.0852 7.76C71.4852 8.128 71.6852 8.592 71.6852 9.152C71.6852 9.712 71.4852 10.184 71.0852 10.568C70.7012 10.936 70.2132 11.12 69.6212 11.12ZM71.2772 12.704V26H67.9172V12.704H71.2772ZM81.8449 26.216C80.7569 26.216 79.7809 26.024 78.9169 25.64C78.0529 25.24 77.3649 24.704 76.8529 24.032C76.3569 23.36 76.0849 22.616 76.0369 21.8H79.4209C79.4849 22.312 79.7329 22.736 80.1649 23.072C80.6129 23.408 81.1649 23.576 81.8209 23.576C82.4609 23.576 82.9569 23.448 83.3089 23.192C83.6769 22.936 83.8609 22.608 83.8609 22.208C83.8609 21.776 83.6369 21.456 83.1889 21.248C82.7569 21.024 82.0609 20.784 81.1009 20.528C80.1089 20.288 79.2929 20.04 78.6529 19.784C78.0289 19.528 77.4849 19.136 77.0209 18.608C76.5729 18.08 76.3489 17.368 76.3489 16.472C76.3489 15.736 76.5569 15.064 76.9729 14.456C77.4049 13.848 78.0129 13.368 78.7969 13.016C79.5969 12.664 80.5329 12.488 81.6049 12.488C83.1889 12.488 84.4529 12.888 85.3969 13.688C86.3409 14.472 86.8609 15.536 86.9569 16.88H83.7409C83.6929 16.352 83.4689 15.936 83.0689 15.632C82.6849 15.312 82.1649 15.152 81.5089 15.152C80.9009 15.152 80.4289 15.264 80.0929 15.488C79.7729 15.712 79.6129 16.024 79.6129 16.424C79.6129 16.872 79.8369 17.216 80.2849 17.456C80.7329 17.68 81.4289 17.912 82.3729 18.152C83.3329 18.392 84.1249 18.64 84.7489 18.896C85.3729 19.152 85.9089 19.552 86.3569 20.096C86.8209 20.624 87.0609 21.328 87.0769 22.208C87.0769 22.976 86.8609 23.664 86.4289 24.272C86.0129 24.88 85.4049 25.36 84.6049 25.712C83.8209 26.048 82.9009 26.216 81.8449 26.216ZM95.9071 15.464V21.896C95.9071 22.344 96.0111 22.672 96.2191 22.88C96.4431 23.072 96.8111 23.168 97.3231 23.168H98.8831V26H96.7711C93.9391 26 92.5231 24.624 92.5231 21.872V15.464H90.9391V12.704H92.5231V9.416H95.9071V12.704H98.8831V15.464H95.9071ZM115.82 19.064C115.82 19.544 115.788 19.976 115.724 20.36H106.004C106.084 21.32 106.42 22.072 107.012 22.616C107.604 23.16 108.332 23.432 109.196 23.432C110.444 23.432 111.332 22.896 111.86 21.824H115.484C115.1 23.104 114.364 24.16 113.276 24.992C112.188 25.808 110.852 26.216 109.268 26.216C107.988 26.216 106.836 25.936 105.812 25.376C104.804 24.8 104.012 23.992 103.436 22.952C102.876 21.912 102.596 20.712 102.596 19.352C102.596 17.976 102.876 16.768 103.436 15.728C103.996 14.688 104.78 13.888 105.788 13.328C106.796 12.768 107.956 12.488 109.268 12.488C110.532 12.488 111.66 12.76 112.652 13.304C113.66 13.848 114.436 14.624 114.98 15.632C115.54 16.624 115.82 17.768 115.82 19.064ZM112.34 18.104C112.324 17.24 112.012 16.552 111.404 16.04C110.796 15.512 110.052 15.248 109.172 15.248C108.34 15.248 107.636 15.504 107.06 16.016C106.5 16.512 106.156 17.208 106.028 18.104H112.34ZM123.792 14.768C124.224 14.064 124.784 13.512 125.472 13.112C126.176 12.712 126.976 12.512 127.872 12.512V16.04H126.984C125.928 16.04 125.128 16.288 124.584 16.784C124.056 17.28 123.792 18.144 123.792 19.376V26H120.432V12.704H123.792V14.768Z" fill="#CAD2C5"/>
</svg>
